<?xml version="1.0" encoding="UTF-8" standalone="no"?>
<!-- Created with Inkscape (http://www.inkscape.org/) -->

<svg
   xmlns:dc="http://purl.org/dc/elements/1.1/"
   xmlns:cc="http://creativecommons.org/ns#"
   xmlns:rdf="http://www.w3.org/1999/02/22-rdf-syntax-ns#"
   xmlns:svg="http://www.w3.org/2000/svg"
   xmlns="http://www.w3.org/2000/svg"
   xmlns:sodipodi="http://sodipodi.sourceforge.net/DTD/sodipodi-0.dtd"
   xmlns:inkscape="http://www.inkscape.org/namespaces/inkscape"
   width="520.99487"
   height="311.0014"
   id="svg2"
   sodipodi:version="0.32"
   inkscape:version="0.48.2 r9819"
   sodipodi:docname="US_Beef_cuts.svg"
   version="1.0">
  <defs
     id="defs4" />
  <sodipodi:namedview
     id="base"
     pagecolor="#ffffff"
     bordercolor="#666666"
     borderopacity="1.0"
     inkscape:pageopacity="0.0"
     inkscape:pageshadow="2"
     inkscape:zoom="2.7398649"
     inkscape:cx="161.27856"
     inkscape:cy="268.83551"
     inkscape:document-units="px"
     inkscape:current-layer="layer1"
     inkscape:window-width="1280"
     inkscape:window-height="856"
     inkscape:window-x="-4"
     inkscape:window-y="0"
     showgrid="false"
     inkscape:window-maximized="0"
     fit-margin-top="5"
     fit-margin-left="5"
     fit-margin-right="5"
     fit-margin-bottom="5" />
  <metadata
     id="metadata7">
    <rdf:RDF>
      <cc:Work
         rdf:about="">
        <dc:format>image/svg+xml</dc:format>
        <dc:type
           rdf:resource="http://purl.org/dc/dcmitype/StillImage" />
      </cc:Work>
    </rdf:RDF>
  </metadata>
  <g
     inkscape:label="Layer 1"
     inkscape:groupmode="layer"
     id="layer1"
     transform="translate(5,5.0016988)">
    <rect
       style="fill:#ccffcc;fill-opacity:1;stroke:none"
       id="rect5718"
       width="128.90013"
       height="44.137012"
       x="309.46063"
       y="41.193497" />
    <path
       id="path1349"
       d="m 411.56997,26.565163 c 0,0 68.79185,-9.736486 69.41238,-7.967801 30.2112,86.109088 -7.15344,148.798708 -6.80558,147.840568 0.34786,-0.95811 -47.91554,1.19608 -47.75294,-0.54325 0.15269,-1.63319 11.11676,-81.836021 -14.85386,-139.329517 z"
       style="fill:#ff99ff;fill-opacity:1"
       sodipodi:nodetypes="csssc"
       inkscape:connector-curvature="0" />
    <path
       id="path1347"
       d="m 364.94455,141.8136 c -2.56643,-0.495 9.87956,-53.835939 6.06554,-53.487652 -8.17654,0.746674 56.97448,-3.03353 58.56188,0.159675 2.66199,5.354869 4.51117,46.363657 -2.97938,76.558487 -0.39483,1.59157 -35.76531,-18.23823 -61.64804,-23.23051 z"
       style="fill:#ff00cc;fill-opacity:1"
       sodipodi:nodetypes="cssss"
       inkscape:connector-curvature="0" />
    <path
       id="path1345"
       d="m 202.9082,135.37371 c 0.19437,-27.21081 -7.15818,-100.424632 -6.28016,-99.380419 0.73355,0.872425 100.51264,-1.075663 101.25003,0.05849 20.19189,31.056108 3.85649,99.513319 3.89362,99.848319 1.27918,11.54132 -98.87359,0.88664 -98.86349,-0.52639 z"
       style="fill:#ffcc00;fill-opacity:1"
       sodipodi:nodetypes="cssss"
       inkscape:connector-curvature="0" />
    <path
       id="path1343"
       d="m 203.15871,135.48098 c 19.27114,0.0419 99.71801,0.86476 99.3945,1.85601 -5.40601,16.56444 -1.13626,40.77008 -1.39451,40.78257 -12.53953,0.60647 -98.86906,9.09021 -99.98436,9.4396 -1.48212,0.46431 1.11343,-33.07639 1.98437,-52.07818 z"
       style="fill:#0099ff;fill-opacity:1"
       sodipodi:nodetypes="cssss"
       inkscape:connector-curvature="0" />
    <path
       id="path1341"
       d="m 104.2021,9.2030768 c 5.93291,1.3380172 90.08471,23.6906792 92.74106,24.5513042 2.65637,0.860644 6.90804,101.077079 7.01901,101.714619 0.26836,1.54185 -87.24353,4.13799 -86.06994,4.85589 0,0 -19.623051,-132.45983 -13.69013,-131.1218132 z"
       style="fill:#ffff00;fill-opacity:1"
       sodipodi:nodetypes="cssss"
       inkscape:connector-curvature="0" />
    <path
       id="path1339"
       d="m 301.25083,136.0026 c -0.96914,3.87514 49.46528,3.19257 63.16444,5.87823 2.41439,0.47333 14.14166,-40.5151 5.51808,-67.455804 -0.98809,-3.086891 -42.15047,1.835189 -54.86478,-0.891975 -3.50954,-0.752779 51.52042,-13.077183 51.56272,-13.478151 1.32666,-12.576859 -6.75606,-21.26651 -7.22674,-26.3939 -0.34051,-3.709254 -63.00813,6.28315 -63.9814,2.830253 -1.03371,-3.667405 24.15848,26.215727 5.82768,99.511347 z"
       style="fill:#00cc00;fill-opacity:1"
       sodipodi:nodetypes="csssssss"
       inkscape:connector-curvature="0" />
    <path
       id="path1369"
       d="m 204.11792,136.02452 c 0,0 -1.40406,51.28709 -3.29672,51.40332 -54.86144,3.36901 -53.65466,-3.17392 -52.74367,-2.69707 0.91099,0.47686 -36.31982,-44.12953 -34.55212,-44.21188 30.25831,-1.40959 37.89118,-4.24563 90.59251,-4.49437 z"
       style="fill:#99ccff;fill-opacity:1"
       sodipodi:nodetypes="csssc"
       inkscape:connector-curvature="0" />
    <path
       style="fill:#00ffff;fill-opacity:1;fill-rule:evenodd;stroke:none"
       d="m 301.43644,136.12705 c 0,0 -6.53062,34.67665 2.29048,42.35899 8.82107,7.68237 113.6363,-17.92547 113.6363,-17.92547 0,0 -26.1593,-22.62278 -115.92678,-24.43352 z"
       id="path1371"
       sodipodi:nodetypes="cscc"
       inkscape:connector-curvature="0" />
    <path
       style="fill:#00ff00;fill-opacity:1;fill-rule:evenodd;stroke:none"
       d="m 359.24785,32.521336 52.29756,-6.643839 7.89337,20.984227 c 0,0 -8.26523,6.546364 -52.4826,12.69232 -1.02762,0.142839 -0.44392,-12.69232 -7.70833,-27.032708 z"
       id="path2246"
       sodipodi:nodetypes="cccsc"
       inkscape:connector-curvature="0" />
    <path
       style="fill:#ffcccc;fill-opacity:1;fill-rule:evenodd;stroke:none"
       d="m 424.10876,67.347998 5.77071,25.457842 c -5.54923,-5.731595 -30.36785,-3.583853 -57.35549,-3.222953 -1.16015,0.01574 -2.37951,-16.601149 -2.37951,-16.601149 26.80574,-1.366735 37.53069,-7.561028 53.96429,-5.63374 z"
       id="path3121"
       sodipodi:nodetypes="ccscc"
       inkscape:connector-curvature="0" />
    <path
       style="fill:none;stroke:#000000;stroke-width:1.53098989;stroke-linecap:round;stroke-linejoin:round;stroke-miterlimit:4;stroke-opacity:1;stroke-dasharray:none"
       d="m 359.82137,34.577098 c 0,0 3.79017,9.90522 7.28572,25.156731"
       id="path1316"
       inkscape:connector-curvature="0" />
    <path
       style="fill:none;stroke:#000000;stroke-width:1.53098989;stroke-linecap:round;stroke-linejoin:round;stroke-miterlimit:4;stroke-opacity:1;stroke-dasharray:none"
       d="m 369.87326,73.550278 c 3.71918,21.85431 4.94415,48.765432 -4.91516,69.309562"
       id="path3997"
       inkscape:connector-curvature="0" />
    <path
       style="fill:none;stroke:#000000;stroke-width:1.53098989;stroke-linecap:round;stroke-linejoin:round;stroke-miterlimit:4;stroke-opacity:1;stroke-dasharray:none"
       d="m 412.48742,26.654858 c 0,0 32.08987,79.627862 14.47825,136.847502"
       id="path1318"
       sodipodi:nodetypes="cc"
       inkscape:connector-curvature="0" />
    <path
       style="fill:none;stroke:#000000;stroke-width:1.53098989;stroke-linecap:round;stroke-linejoin:round;stroke-miterlimit:4;stroke-opacity:1;stroke-dasharray:none"
       d="M 418.86228,47.173406 C 395.33386,58.117442 351.188,59.648856 314.6302,73.558436 389.66531,75.78085 374.47948,70.391697 424.09465,66.808415"
       id="path1320"
       sodipodi:nodetypes="ccc"
       inkscape:connector-curvature="0" />
    <path
       style="fill:none;stroke:#000000;stroke-width:1.53098989;stroke-linecap:round;stroke-linejoin:round;stroke-miterlimit:4;stroke-opacity:1;stroke-dasharray:none"
       d="m 297.81381,37.474296 c 25.98095,62.267555 -5.47675,82.721344 4.03599,140.876204"
       id="path1322"
       sodipodi:nodetypes="cc"
       inkscape:connector-curvature="0" />
    <path
       style="fill:none;stroke:#000000;stroke-width:1.53098989;stroke-linecap:round;stroke-linejoin:round;stroke-miterlimit:4;stroke-opacity:1;stroke-dasharray:none"
       d="m 126.46744,139.60049 c 0,0 249.49792,-19.19393 292.05933,22.81542"
       id="path1324"
       sodipodi:nodetypes="cc"
       inkscape:connector-curvature="0" />
    <path
       style="fill:none;stroke:#000000;stroke-width:1.53098989;stroke-linecap:round;stroke-linejoin:round;stroke-miterlimit:4;stroke-opacity:1;stroke-dasharray:none"
       d="m 197.64773,37.112145 c 0,0 9.90652,114.439285 3.66909,148.481355"
       id="path1326"
       inkscape:connector-curvature="0" />
    <path
       style="fill:none;stroke:#000000;stroke-width:1.53098989;stroke-linecap:round;stroke-linejoin:round;stroke-miterlimit:4;stroke-opacity:1;stroke-dasharray:none"
       d="m 429.67653,92.403881 c 0,0 -4.13133,-7.298163 -57.3633,-2.488022"
       id="path2201"
       sodipodi:nodetypes="cc"
       inkscape:connector-curvature="0" />
    <text
       xml:space="preserve"
       style="font-size:13.99999714px;font-style:normal;font-variant:normal;font-weight:normal;font-stretch:normal;text-align:start;line-height:125%;writing-mode:lr-tb;text-anchor:start;fill:#000000;fill-opacity:1;stroke:none;font-family:Bitstream Vera Sans"
       x="137.61536"
       y="89.633507"
       id="text3076"
       transform="scale(1.006549,0.993494)"
       sodipodi:linespacing="125%"><tspan
         sodipodi:role="line"
         id="tspan3078"
         x="137.61536"
         y="89.633507">Chuck</tspan></text>
    <text
       xml:space="preserve"
       style="font-size:14.00000286px;font-style:normal;font-variant:normal;font-weight:normal;font-stretch:normal;text-align:start;line-height:125%;writing-mode:lr-tb;text-anchor:start;fill:#000000;fill-opacity:1;stroke:none;font-family:Bitstream Vera Sans"
       x="139.82283"
       y="160.19897"
       id="text3080"
       transform="scale(1.006549,0.993494)"
       sodipodi:linespacing="125%"><tspan
         sodipodi:role="line"
         id="tspan3082"
         x="139.82283"
         y="160.19897">Brisket</tspan></text>
    <text
       xml:space="preserve"
       style="font-size:13.99999714px;font-style:normal;font-variant:normal;font-weight:normal;font-stretch:normal;text-align:start;line-height:125%;writing-mode:lr-tb;text-anchor:start;fill:#000000;fill-opacity:1;stroke:none;font-family:Bitstream Vera Sans"
       x="232.79323"
       y="160.55365"
       id="text3084"
       transform="scale(1.006549,0.993494)"
       sodipodi:linespacing="125%"><tspan
         sodipodi:role="line"
         id="tspan3086"
         x="232.79323"
         y="160.55365">Plate</tspan></text>
    <text
       xml:space="preserve"
       style="font-size:13.99999714px;font-style:normal;font-variant:normal;font-weight:normal;font-stretch:normal;text-align:start;line-height:125%;writing-mode:lr-tb;text-anchor:start;fill:#000000;fill-opacity:1;stroke:none;font-family:Bitstream Vera Sans"
       x="241.24277"
       y="89.633507"
       id="text3088"
       transform="scale(1.006549,0.993494)"
       sodipodi:linespacing="125%"><tspan
         sodipodi:role="line"
         id="tspan3090"
         x="241.24277"
         y="89.633507">Rib</tspan></text>
    <text
       xml:space="preserve"
       style="font-size:13.99999714px;font-style:normal;font-variant:normal;font-weight:normal;font-stretch:normal;text-align:start;line-height:125%;writing-mode:lr-tb;text-anchor:start;fill:#000000;fill-opacity:1;stroke:none;font-family:Bitstream Vera Sans"
       x="316.7413"
       y="104.32562"
       id="text3092"
       transform="scale(1.006549,0.993494)"
       sodipodi:linespacing="125%"><tspan
         sodipodi:role="line"
         id="tspan3094"
         x="316.7413"
         y="104.32562">Short</tspan><tspan
         sodipodi:role="line"
         x="316.7413"
         y="121.82562"
         id="tspan3096"> Loin</tspan></text>
    <text
       xml:space="preserve"
       style="font-size:13.99999714px;font-style:normal;font-variant:normal;font-weight:normal;font-stretch:normal;text-align:start;line-height:125%;writing-mode:lr-tb;text-anchor:start;fill:#000000;fill-opacity:1;stroke:none;font-family:Bitstream Vera Sans"
       x="312.61951"
       y="160.41859"
       id="text3098"
       transform="scale(1.006549,0.993494)"
       sodipodi:linespacing="125%"><tspan
         sodipodi:role="line"
         id="tspan3100"
         x="312.61951"
         y="160.41859">Flank</tspan></text>
    <text
       xml:space="preserve"
       style="font-size:12px;font-style:normal;font-variant:normal;font-weight:normal;font-stretch:normal;text-align:center;line-height:125%;writing-mode:lr-tb;text-anchor:middle;fill:#000000;fill-opacity:1;stroke:none;font-family:Bitstream Vera Sans"
       x="400.89758"
       y="125.67484"
       id="text3102"
       transform="scale(1.006549,0.993494)"
       sodipodi:linespacing="125%"><tspan
         sodipodi:role="line"
         x="400.89758"
         y="125.67484"
         id="tspan3106">Bottom</tspan><tspan
         sodipodi:role="line"
         x="400.89758"
         y="140.67484"
         id="tspan1356">Sirloin</tspan></text>
    <text
       xml:space="preserve"
       style="font-size:14px;font-style:normal;font-variant:normal;font-weight:normal;font-stretch:normal;text-align:start;line-height:125%;writing-mode:lr-tb;text-anchor:start;fill:#000000;fill-opacity:1;stroke:none;font-family:Bitstream Vera Sans"
       x="431.83798"
       y="96.896645"
       id="text3112"
       transform="scale(1.006549,0.993494)"
       sodipodi:linespacing="125%"><tspan
         sodipodi:role="line"
         id="tspan3114"
         x="431.83798"
         y="96.896645">Round</tspan></text>
    <text
       xml:space="preserve"
       style="font-size:14px;font-style:normal;font-variant:normal;font-weight:normal;font-stretch:normal;text-align:start;line-height:125%;writing-mode:lr-tb;text-anchor:start;fill:#000000;fill-opacity:1;stroke:none;font-family:Bitstream Vera Sans"
       x="346.50256"
       y="135.93712"
       id="text3116"
       transform="matrix(0.980396,-0.227956,0.224999,0.967681,0,0)"
       sodipodi:linespacing="125%"><tspan
         sodipodi:role="line"
         id="tspan3118"
         x="346.50256"
         y="135.93712">Sirloin</tspan></text>
    <path
       style="fill:#000000;fill-opacity:1;fill-rule:nonzero;stroke:none"
       d="m 60.40604,0.00420474 c -1.68356,0.09256 -3.29461,0.36523 -4.81249,0.78119 C 51.4763,1.9136647 48.61462,6.2819847 44.78109,11.159535 c -5.95281,7.574 -21.07254,2.52152 -22.74992,9.24924 -2.28263,9.15539 6.0001,10.80411 7.21873,11.24907 0.03584,0.01569 0.1014,0.04904 0.125,0.0625 4e-5,0.0029 1.2e-4,0.02765 0,0.03124 -6.16202,17.52388 -9.65517,13.66549 -25.68741,28.31017 C 0.55501,62.923125 0,76.185415 0,76.185425 c 5.92061,4.58719 4.90752,3.20858 13.5312,4.31214 4.87038,0.62326 4.9,2.52856 12.06246,3.90593 3.075,0.59134 8.27489,-0.722 11.03121,-0.24998 8.20975,1.40594 10.6963,4.64927 23.90617,6.40573 5.38,0.71538 7.13883,-2.18008 18.06243,-2.21857 6.44679,-0.02273 7.50711,4.1253 10.96872,7.81185 2.49528,2.65747 19.61344,42.014565 21.56243,45.839965 2.53636,4.97837 3.37442,7.72341 2.93748,9.6867 -0.49713,2.23393 0.19291,3.6755 3.78124,7.71812 2.42335,2.73016 21.51369,24.39991 26.2499,28.18517 1.87913,1.50189 6.84229,3.64522 7.46873,3.99967 0.007,-6e-5 0.0298,10e-6 0.0312,0 1e-4,0.003 2.1e-4,0.0276 0,0.0312 0.0287,0.11776 3.95803,26.55812 12.81245,37.0282 -3.8e-4,0.004 6e-5,0.0284 0,0.0312 0.003,0 0.0276,2.7e-4 0.0312,0 -5.8e-4,0.003 1.5e-4,0.0285 0,0.0312 0.012,0.0194 0.0466,0.0677 0.0625,0.0937 1.10616,2.18196 1.07449,14.87465 0.9375,26.21659 -0.0739,5.89099 -11.14728,26.80994 -12.40621,29.49757 -3.33504,7.12044 -2.30917,10.05007 3.96874,11.18658 3.69057,0.66805 4.44804,0.67883 4.71873,0.78118 0.001,0 0.024,8e-5 0.0312,0 -3.7e-4,0.004 7e-5,0.0284 0,0.0312 0.003,8e-5 0.0276,2.2e-4 0.0312,0 10e-4,1e-5 0.0239,9e-5 0.0312,0 7e-5,0.007 2.9e-4,0.0296 0,0.0312 l 0,4.37464 c 19.19639,0.46756 28.89349,-0.77748 31.37489,-10.53038 0.64141,-2.52101 3.56195,-2.50792 4.09374,-2.62479 0.001,-5e-5 0.0239,-10e-5 0.0312,0 5e-5,-0.007 1.8e-4,-0.0295 0,-0.0312 0.33651,-9.43807 -4.37837,-16.90968 -3.74999,-48.80847 0.10422,-5.29038 12.04265,-48.8389 17.34369,-49.65216 1.51626,-0.23257 49.92841,-5.85905 61.34354,-2.09357 3.9089,1.28946 35.21923,12.15451 37.71861,14.28007 0.0179,0.0163 0.0482,0.0473 0.0625,0.0625 2.46244,2.6086 5.46315,2.44666 11.24996,-0.5937 2.6226,-1.37784 81.08752,-31.72359 83.12471,-31.74738 0.007,-4e-5 0.0297,5e-5 0.0312,0 7.82547,26.36015 5.32958,16.87343 20.68743,36.09077 -1.7e-4,0.002 -4e-5,0.0242 0,0.0312 0.004,0.009 0.023,0.0453 0.0312,0.0625 0.61584,2.45983 -0.38212,44.66743 -6.68748,56.08912 -1.32466,2.39956 -11.84765,17.12132 -7.12497,17.18608 18.32949,0.25147 23.15973,-0.52204 27.6874,-6.37447 l 5.31248,-7.2494 c 0.46257,-17.95764 -2.99642,-34.65347 1.37501,-50.4021 1.49278,-5.37795 2.09096,-7.67205 2.68748,-8.40555 0.0353,-0.0417 0.0843,-0.0885 0.125,-0.12499 0.007,-0.006 0.0244,-0.0263 0.0312,-0.0312 0.0102,-0.006 0.0513,-0.0257 0.0625,-0.0312 0.0226,-0.0105 0.0462,-0.0232 0.0625,-0.0312 0.003,-0.004 0.0285,-0.0284 0.0312,-0.0312 0.003,1e-5 0.0276,-1.1e-4 0.0312,0 0.005,2e-5 0.025,-3.2e-4 0.0312,0 0.002,-7e-5 0.0297,2.4e-4 0.0312,0 0.006,1.7e-4 0.0281,2.8e-4 0.0312,0 0.0128,-7.1e-4 0.0495,-1e-4 0.0625,0 0.007,2.6e-4 0.0189,2.2e-4 0.0312,0 0.005,2e-5 0.0279,-3.3e-4 0.0312,0 0.005,-1.1e-4 0.0251,2.5e-4 0.0312,0 0.002,1.2e-4 0.0295,-3.2e-4 0.0312,0 0.3459,0.0705 0.76571,0.37441 1.375,0.74994 3.48833,2.15011 4.64579,23.94939 6.78123,38.84054 0.74243,5.17732 -1.40132,15.30382 -1.875,16.74862 -4.18119,12.75424 -10.00913,15.87588 -11.21871,25.06044 l 7.12498,0.68744 c 8.39799,0.81685 14.72923,-0.20363 19.93743,-2.53104 6.55915,-2.93109 6.54411,-6.42305 13.24995,-23.52931 -2.4e-4,-0.003 8e-5,-0.0284 0,-0.0312 0.004,-0.003 0.0245,-0.0247 0.0312,-0.0312 0.32804,-2.12494 -4.47214,-31.3871 -4.81248,-38.34059 -0.59485,-12.15397 -0.52035,-13.03525 1.68749,-16.56113 2.03042,-3.24245 3.12492,-4.73352 1.71874,-10.46789 -6.56519,-26.77306 5.37228,-56.0005 6.78123,-58.1827 0.003,-0.003 0.028,-0.0283 0.0312,-0.0312 10e-4,0 0.0238,-7e-5 0.0312,0 -2.9e-4,-0.0111 3.9e-4,-0.0516 0,-0.0625 0.007,1e-4 0.0298,-3e-5 0.0312,0 4.5e-4,2.4e-4 0.0237,1.2e-4 0.0312,0 -6e-5,0.007 10e-6,0.0286 0,0.0312 -10e-6,0.9048 -5.53121,26.9224 -5.53123,31.4974 -1e-5,2.1289 0.48681,4.33807 1.09375,4.93709 0.003,0.003 0.0246,0.0246 0.0312,0.0312 0.0159,0.0214 0.0469,0.0679 0.0625,0.0937 0.006,0.0121 0.0233,0.0469 0.0312,0.0625 0.0141,0.0217 0.0479,0.0686 0.0625,0.0937 0.54263,1.18262 0.77808,4.94163 0.59374,10.06167 -0.18383,5.10812 -0.10122,7.93857 0.34375,8.81177 0.005,0.0105 0.0258,0.0517 0.0312,0.0625 0.0161,0.0259 0.0462,0.072 0.0625,0.0937 0.003,0.003 0.028,0.0281 0.0312,0.0312 0.002,0.002 0.0244,0.0243 0.0312,0.0312 0.002,0.001 0.0244,0.0241 0.0312,0.0312 0.007,-7e-5 0.0299,2e-5 0.0313,0 0.007,0.007 0.0279,0.0276 0.0312,0.0312 0.007,-4e-5 0.0299,0 0.0312,0 10e-4,2.7e-4 0.0285,0 0.0312,0 0.002,2.2e-4 0.0245,6e-5 0.0312,0 0.004,3e-5 0.0268,2e-4 0.0312,0 0.002,-1.5e-4 0.0246,-1.3e-4 0.0312,0 10e-4,-2e-4 0.0285,-6e-5 0.0312,0 0.0241,-0.007 0.0764,-0.0235 0.0937,-0.0312 0.0132,-0.006 0.0465,-0.0229 0.0625,-0.0312 0.33505,-0.21189 0.76,-0.81978 1.28125,-1.7811 0.40632,-0.74933 0.93302,-1.43237 1.34374,-1.7811 0.0578,-0.0476 0.15993,-0.11833 0.21875,-0.15624 0.0315,-0.0159 0.10016,-0.0495 0.125,-0.0625 0.003,-0.003 0.0284,-0.0283 0.0312,-0.0312 0.003,-2e-5 0.0279,-2.4e-4 0.0312,0 0.007,7e-5 0.0301,8e-5 0.0312,0 0.006,-6e-5 0.0286,-1e-4 0.0312,0 0.003,-1.6e-4 0.025,-5e-5 0.0312,0 0.002,2.9e-4 0.0247,1.7e-4 0.0312,0 0.0158,0.004 0.069,0.022 0.0937,0.0312 10e-4,3e-5 0.0239,9e-5 0.0312,0 6e-5,0.007 1.9e-4,0.0295 0,0.0312 0.003,0.003 0.0286,0.0285 0.0312,0.0312 0.003,-4e-5 0.0276,1.7e-4 0.0312,0 0.0162,0.0162 0.0521,0.0529 0.0625,0.0625 1.775,1.69734 8.0509,15.52257 8.65622,19.3109 0.22514,1.40871 0.48134,2.32017 0.8125,2.81227 0.0173,0.0247 0.0447,0.0711 0.0625,0.0937 0.006,0.007 0.0252,0.0242 0.0312,0.0312 0.0226,0.0254 0.0703,0.0715 0.0937,0.0937 0.003,0.003 0.0249,0.0247 0.0312,0.0312 0.007,0.007 0.0281,0.0279 0.0312,0.0312 0.003,-3e-5 0.0307,-3.3e-4 0.0312,0 -3.2e-4,0.004 8e-5,0.0284 0,0.0312 0.004,-1.1e-4 0.0284,5e-5 0.0312,0 0.007,0.007 0.0281,0.0278 0.0312,0.0312 0.0163,0.008 0.0527,0.0264 0.0625,0.0312 0.01,0.005 0.0461,0.0231 0.0625,0.0312 10e-4,-3e-5 0.0239,4e-5 0.0312,0 0.0109,0.006 0.0519,0.0258 0.0625,0.0312 0.003,-1e-5 0.0278,1.2e-4 0.0312,0 0.007,-7e-5 0.0301,-8e-5 0.0312,0 0.006,-2.9e-4 0.0258,1.2e-4 0.0312,0 0.003,2e-5 0.0304,-2.6e-4 0.0312,0 0.003,0.003 0.0247,0.0245 0.0313,0.0312 0.001,-4e-5 0.0239,4e-5 0.0312,0 0.19256,0.007 0.41312,-0.0641 0.65625,-0.15623 0.24049,-0.0911 0.45769,-0.19851 0.625,-0.34373 0.036,-0.0323 0.0864,-0.0842 0.125,-0.12499 0.006,-0.007 0.026,-0.0251 0.0312,-0.0312 0.003,-0.003 0.0246,-0.0247 0.0312,-0.0312 -2.3e-4,-0.0113 4.3e-4,-0.0517 0,-0.0625 0.003,1e-5 0.0275,-2.2e-4 0.0312,0 0.0162,-0.0231 0.0474,-0.0693 0.0625,-0.0937 0.42941,-0.72076 0.43216,-2.00101 0.0937,-4.43713 -0.26126,-1.8813 -0.38299,-3.00068 -0.28125,-3.49971 0.006,-0.005 0.0255,-0.0259 0.0312,-0.0312 -2.6e-4,-0.003 7e-5,-0.0286 0,-0.0312 0.007,-0.0152 0.0249,-0.0504 0.0312,-0.0625 -1.7e-4,-0.002 -4e-5,-0.0242 0,-0.0312 0.002,-1e-5 0.0239,-9e-5 0.0312,0 6e-5,-0.007 2e-4,-0.0295 0,-0.0312 0.007,-0.007 0.0281,-0.0284 0.0312,-0.0312 0.003,-0.004 0.0252,-0.0251 0.0312,-0.0312 0.007,-0.007 0.0283,-0.028 0.0312,-0.0312 0.007,5e-5 0.0299,-3e-5 0.0312,0 0.001,-6e-5 0.0239,-10e-5 0.0312,0 6e-5,-0.007 1.9e-4,-0.0295 0,-0.0312 0.002,-2.9e-4 0.0247,-1.4e-4 0.0312,0 0.005,-8e-5 0.0261,-1.3e-4 0.0312,0 0.003,2.3e-4 0.0248,1.2e-4 0.0312,0 0.003,0.003 0.0247,0.0248 0.0312,0.0312 0.007,-4e-5 0.0299,2e-5 0.0312,0 0.18901,0.0592 0.45671,0.23413 0.78124,0.49996 0.37161,0.30442 0.7034,0.57566 0.9375,0.68744 10e-4,-3e-5 0.024,5e-5 0.0312,0 0.011,0.006 0.0521,0.0258 0.0625,0.0312 0.003,-1e-5 0.0277,1e-4 0.0312,0 0.007,-7e-5 0.0301,-9e-5 0.0312,0 0.006,-1.9e-4 0.0259,1.6e-4 0.0312,0 0.0108,-4e-5 0.0464,2.6e-4 0.0625,0 0.0119,-0.004 0.0442,-0.0252 0.0625,-0.0312 0.008,-0.003 0.0269,0.002 0.0312,0 0.003,-0.003 0.0285,-0.0284 0.0312,-0.0312 0.0117,-0.005 0.0521,-0.026 0.0625,-0.0312 0.006,-0.006 0.0287,-0.0283 0.0312,-0.0312 -2.6e-4,-0.002 -9e-5,-0.0242 0,-0.0312 0.37978,-0.62658 0.35587,-3.05906 0.28125,-9.18674 -0.0412,-3.38053 -0.0446,-5.13403 0.125,-5.68703 -3.7e-4,-0.003 6e-5,-0.0284 0,-0.0312 0.003,-0.003 0.0276,-0.028 0.0312,-0.0312 -4e-5,-0.003 1.7e-4,-0.0278 0,-0.0312 0.007,-0.013 0.0232,-0.0473 0.0312,-0.0625 0.007,1e-4 0.0299,-5e-5 0.0312,0 0.003,-0.003 0.0246,-0.0247 0.0312,-0.0312 0.002,-4e-5 0.0245,2e-5 0.0312,0 10e-4,2.7e-4 0.0285,6e-5 0.0312,0 10e-4,5e-5 0.0239,1e-4 0.0312,0 6e-5,0.007 1.9e-4,0.0295 0,0.0312 0.003,-4e-5 0.0307,-2.9e-4 0.0312,0 -4e-4,0.003 6e-5,0.0284 0,0.0312 0.003,1.1e-4 0.0276,2e-4 0.0312,0 0.0255,0.032 0.071,0.0954 0.0937,0.12499 0.20643,0.27942 0.49788,0.843 0.87499,1.62487 0.80687,1.67302 1.48782,3.72565 1.53125,4.56212 0.0109,0.21052 0.0572,0.3992 0.0937,0.53121 0.008,0.0277 0.0204,0.0665 0.0312,0.0937 0.008,0.0195 0.0232,0.0479 0.0312,0.0625 -3.5e-4,0.0111 3e-4,0.0516 0,0.0625 0.003,-2e-5 0.0275,2.3e-4 0.0312,0 -6e-4,0.003 0,0.0283 0,0.0312 0.003,0 0.0276,2.5e-4 0.0312,0 0.007,-5e-5 0.0298,1e-5 0.0312,0 0.003,0.003 0.0247,0.0247 0.0312,0.0312 0.002,3.1e-4 0.0242,1.1e-4 0.0312,0 0.003,2.6e-4 0.0251,2e-5 0.0312,0 0.007,1.3e-4 0.0293,3.1e-4 0.0312,0 0.0235,-0.007 0.0741,-0.0224 0.0937,-0.0312 0.0328,-0.0218 0.0942,-0.0702 0.12501,-0.0937 0.23513,-0.18932 0.57688,-0.57278 0.99999,-1.1249 1.99765,-2.60664 1.9128,-4.57349 -0.53125,-11.43656 -1.11166,-3.12167 -1.51459,-4.96419 -1.28124,-5.87452 0.0226,-0.0818 0.0603,-0.18327 0.0937,-0.24998 0.006,-0.0108 0.0231,-0.0464 0.0312,-0.0625 0.001,0 0.0239,-8e-5 0.0312,0 -2e-4,-0.002 -7e-5,-0.0242 0,-0.0312 10e-4,0 0.0238,-7e-5 0.0312,0 -3.5e-4,-0.011 3.2e-4,-0.0515 0,-0.0625 0.007,-0.006 0.0287,-0.0284 0.0312,-0.0312 0.005,-0.005 0.026,-0.026 0.0312,-0.0312 0.006,-0.007 0.0285,-0.0288 0.0312,-0.0312 10e-4,-2e-5 0.0239,-9e-5 0.0312,0 6e-5,-0.007 1.9e-4,-0.0295 0,-0.0312 0.003,3e-5 0.0307,3e-4 0.0312,0 -8e-5,-0.003 3.2e-4,-0.0277 0,-0.0312 0.007,2.2e-4 0.0306,3.2e-4 0.0312,0 0.0236,-0.0154 0.076,-0.0502 0.0937,-0.0625 0.001,-2e-5 0.0239,-9e-5 0.0312,0 6e-5,-0.007 1.9e-4,-0.0295 0,-0.0312 0.006,-0.005 0.0248,-0.0255 0.0312,-0.0312 0.0275,-0.0254 0.068,-0.066 0.0937,-0.0937 0.006,-0.007 0.0263,-0.0251 0.0312,-0.0312 0.001,0 0.0239,-9e-5 0.0312,0 -1.8e-4,-0.002 -5e-5,-0.0242 0,-0.0312 10e-4,1e-5 0.0239,-7e-5 0.0313,0 -3.2e-4,-0.011 3.5e-4,-0.0514 0,-0.0625 0.46336,-0.75321 0.3169,-2.42357 -0.46875,-5.65579 -1.03536,-4.25959 -1.03645,-5.7179 0.0312,-7.68686 1.10252,-2.03322 1.05209,-3.46436 -0.375,-8.53055 -1.3408,-4.75945 -1.79788,-6.77064 -1.46875,-7.59312 -1.8e-4,-0.0108 2.8e-4,-0.0514 0,-0.0625 0.006,-0.006 0.0255,-0.026 0.0312,-0.0312 0.003,-0.003 0.0245,-0.0246 0.0312,-0.0312 -2.3e-4,-0.002 -7e-5,-0.0242 0,-0.0312 0.0227,-0.0259 0.0697,-0.0698 0.0937,-0.0937 0.002,-0.005 0.0293,-0.0253 0.0312,-0.0312 0.001,-0.003 -10e-4,-0.0285 0,-0.0312 0.003,4e-5 0.0276,-2.5e-4 0.0312,0 0.0173,-0.0121 0.0693,-0.0468 0.0937,-0.0625 0.0107,-0.006 0.0517,-0.0258 0.0625,-0.0312 0.003,4e-5 0.0277,-1.5e-4 0.0312,0 0.22475,-0.0864 0.5166,-0.12498 0.875,-0.12499 0.38167,1e-5 0.70425,-0.11406 0.9375,-0.31247 0.97451,-0.8858 0.59651,-3.54709 -1.15625,-7.43689 -1.53475,-3.40608 -1.78642,-7.95144 -1.90624,-34.34092 -0.14846,-32.688655 -5.56562,-60.752565 -6.18748,-62.338605 -8.37127,-21.35147 -6.92717,-17.90781 -18.46869,-28.21642 -74.3286,5.0732 -117.71298,13.091813 -158.12444,15.52997 C 175.84135,39.449425 216.65278,33.019882 80.28097,2.2852747 74.308106,0.93914886 67.48476,-0.08929526 61.49978,0.00420474 c -0.1949,0.00304 -0.369311,-0.0068 -0.56249,0 -0.11671,0.0041 -0.25878,-0.00562 -0.375,0 -0.05447,0.00263 -0.10194,-0.00299 -0.15625,0 z M 118.49958,16.815325 c 0.0262,-0.0048 0.0622,0.0024 0.0937,0 0.0841,-0.0064 0.20006,-0.02077 0.28125,0 68.38878,17.492898 59.49706,41.210095 278.53028,13.37389 68.16161,-12.47527 86.47646,-9.96044 79.06222,4.53088 10e-4,0 0.0238,6e-5 0.0312,0 -4.7e-4,0.01086 2.4e-4,0.05128 0,0.0625 0.96488,2.16264 30.38535,48.45568 -2.81249,128.020685 l -46.18734,0.84368 c -8.46395,0.47984 -8.70721,-3.40356 -10.46871,-2.87477 -51.93081,13.14722 -147.49861,15.71046 -208.18677,22.93561 -20.18976,-1.06273 -46.5539,-0.88363 -54.99981,-3.96842 C 123.56384,168.68013 96.405913,39.499427 111.71836,20.939985 c 1.89978,-2.302629 3.37827,-3.91255 6.65622,-4.09342 0.03,-0.0016 0.068,0.0046 0.0937,0 0.009,-0.0016 0.0225,-0.02965 0.0312,-0.03124 z"
       id="rect3105"
       sodipodi:nodetypes="cssssscssssssssssssssscsssscsssssssccsssssssssssccssssccsssssssssssssssssssccscscsssssssssssssssssssssssssssssssssssssssssssssssssssssssssssssssssssssssssssssssssssssssssssssssssssssssssssssssssssssssssssssssssssssssssssssssssssssssssssssssssssssssssssssssssssssssssscssscsssssccssccscccccssssc"
       inkscape:connector-curvature="0" />
    <path
       style="fill:#990000;fill-opacity:1;fill-rule:evenodd;stroke:none"
       d="m 422.51784,165.77349 50.70197,-1.22134 c 2.7096,25.50766 2.24758,36.64262 -8.21088,36.16439 -20.8157,0.15664 -28.7547,-15.95055 -42.49109,-34.94305 z"
       id="path3120"
       sodipodi:nodetypes="cccc"
       inkscape:connector-curvature="0" />
    <path
       style="fill:#990000;fill-opacity:1;fill-rule:evenodd;stroke:none"
       d="m 164.42755,186.7123 35.51532,-0.0683 c -1.96321,23.20158 -7.68217,33.76001 -14.636,32.70525 -8.54956,0.73316 -15.90445,-14.7975 -20.87932,-32.63693 z"
       id="path3995"
       sodipodi:nodetypes="cccc"
       inkscape:connector-curvature="0" />
    <text
       xml:space="preserve"
       style="font-size:13.99999619px;font-style:normal;font-variant:normal;font-weight:normal;font-stretch:normal;text-align:start;line-height:125%;writing-mode:lr-tb;text-anchor:start;fill:#ffffff;fill-opacity:1;stroke:none;font-family:Bitstream Vera Sans"
       x="430.59473"
       y="178.37146"
       id="text1349"
       transform="scale(0.999515,1.000485)"
       sodipodi:linespacing="125%"><tspan
         sodipodi:role="line"
         id="tspan1351"
         x="430.59473"
         y="178.37146">Shank</tspan></text>
    <text
       xml:space="preserve"
       style="font-size:13.99999619px;font-style:normal;font-variant:normal;font-weight:normal;font-stretch:normal;text-align:start;line-height:125%;writing-mode:lr-tb;text-anchor:start;fill:#ffffff;fill-opacity:1;stroke:none;font-family:Bitstream Vera Sans"
       x="159.80315"
       y="198.22925"
       id="text1353"
       transform="scale(0.999515,1.000485)"
       sodipodi:linespacing="125%"><tspan
         sodipodi:role="line"
         id="tspan1355"
         x="159.80315"
         y="198.22925">Shank</tspan></text>
    <text
       xml:space="preserve"
       style="font-size:12px;font-style:normal;font-variant:normal;font-weight:normal;font-stretch:normal;text-align:start;line-height:125%;writing-mode:lr-tb;text-anchor:start;fill:#000000;fill-opacity:1;stroke:none;font-family:Bitstream Vera Sans"
       x="345.3403"
       y="124.31587"
       id="text1355"
       sodipodi:linespacing="125%"
       transform="matrix(0.98918325,-0.14668504,0.14668504,0.98918325,0,0)"><tspan
         sodipodi:role="line"
         id="tspan1358"
         x="345.3403"
         y="124.31587">Tenderloin</tspan></text>
    <text
       xml:space="preserve"
       style="font-size:10px;font-style:normal;font-variant:normal;font-weight:normal;font-stretch:normal;text-align:start;line-height:125%;writing-mode:lr-tb;text-anchor:start;fill:#000000;fill-opacity:1;stroke:none;font-family:Bitstream Vera Sans"
       x="373.74106"
       y="83.106041"
       id="text1354"
       sodipodi:linespacing="125%"><tspan
         sodipodi:role="line"
         id="tspan1357"
         x="373.74106"
         y="83.106041">Top Sirloin</tspan></text>
  </g>
</svg>
