<?xml version="1.0" encoding="UTF-8" standalone="no"?>
<!-- Created with Inkscape (http://www.inkscape.org/) -->

<svg
   xmlns:dc="http://purl.org/dc/elements/1.1/"
   xmlns:cc="http://creativecommons.org/ns#"
   xmlns:rdf="http://www.w3.org/1999/02/22-rdf-syntax-ns#"
   xmlns:svg="http://www.w3.org/2000/svg"
   xmlns="http://www.w3.org/2000/svg"
   version="1.1"
   width="500"
   height="646"
   id="svg2985">
  <metadata
     id="metadata2991">
    <rdf:RDF>
      <cc:Work
         rdf:about="">
        <dc:format>image/svg+xml</dc:format>
        <dc:type
           rdf:resource="http://purl.org/dc/dcmitype/StillImage" />
        <dc:title></dc:title>
      </cc:Work>
    </rdf:RDF>
  </metadata>
  <defs
     id="defs2989" />
  <path
     d="m 171.63089,413.5382 -3.86911,-1.14525 -1.35892,-2.59358 -1.35891,-2.59358 2.47802,-0.62195 2.47803,-0.62194 0,-2.42194 0,-2.42193 0.86635,-0.53543 0.86636,-0.53544 1.78863,1.97642 1.78864,1.97642 4.84501,0 4.84501,0 0,-1.89301 0,-1.89301 1.60375,-0.61542 1.60376,-0.61542 -0.57237,-1.49157 -0.57237,-1.49157 1.42847,0 1.42848,0 1.19843,-4 1.19843,-4 0.80977,0 c 0.44538,0 1.4246,1.17343 2.17605,2.60763 l 1.36628,2.60763 3.16693,-4.30636 3.16693,-4.30636 -0.95447,-0.95447 -0.95446,-0.95446 1.03823,-1.93995 1.03822,-1.93994 -0.63252,-2.65686 c -0.34788,-1.46127 -0.87579,-3.47373 -1.17313,-4.47213 l -0.54062,-1.81527 4.18501,2.13503 c 2.30176,1.17427 4.40352,1.91653 4.67058,1.64946 0.26706,-0.26706 0.17681,-2.95678 -0.20056,-5.97714 l -0.68612,-5.49158 -4.18592,-1.05402 -4.18591,-1.05403 -2.11403,0.55283 -2.11403,0.55283 -0.66379,-2.09142 -0.6638,-2.09142 -2.99835,0 -2.99835,0 -1.92523,-1.03035 -1.92523,-1.03035 -2.75903,1.43748 c -1.51747,0.79061 -4.62455,3.16677 -6.90462,5.28035 l -4.14559,3.84287 -2.35441,0.11029 c -1.29493,0.0607 -3.74325,0.43968 -5.44072,0.84227 l -3.08631,0.73196 -1.76303,-1.76303 -1.76303,-1.76302 2.1527,-1.62379 2.1527,-1.62378 -1.0903,-2.86771 -1.0903,-2.86771 0.63292,-4.22065 0.63293,-4.22064 2.90768,-2.14974 2.90769,-2.14975 -2.024,-3.96735 -2.02399,-3.96735 0.93877,0 c 0.51632,0 1.89216,-1.54263 3.05743,-3.42807 l 2.11866,-3.42807 -0.63522,-2.53091 c -0.34937,-1.392 -1.2373,-3.0306 -1.97318,-3.64133 l -1.33797,-1.11041 -2.07875,1.11252 -2.07876,1.11252 -0.62648,-1.63258 -0.62648,-1.63258 2.89131,-2.84741 2.89132,-2.84741 5.83649,-0.44963 5.83649,-0.44962 1.00661,-1.00661 1.00661,-1.00661 -1.663,-2.53805 -1.66299,-2.53805 2.52093,-1.65178 2.52093,-1.65178 2.04897,0.65032 2.04896,0.65032 0,1.45736 0,1.45736 2.58392,0.9824 2.58391,0.98241 0.91609,-0.56617 C 190.58776,307.13674 191,306.24936 191,305.47617 l 0,-1.4058 1.98965,-1.06483 1.98965,-1.06483 1.71843,-3.22035 c 0.94514,-1.7712 1.7373,-3.54919 1.76035,-3.9511 0.0231,-0.40191 1.07375,-1.45347 2.33488,-2.3368 l 2.29296,-1.60605 1.45704,1.20924 1.45704,1.20924 0,-0.74489 0,-0.74489 1.52417,1.26495 1.52416,1.26494 0.63614,-0.63614 0.63614,-0.63614 1.44663,2.06536 1.44664,2.06536 -2.11609,2.25247 c -1.16384,1.23885 -1.89714,2.4714 -1.62955,2.739 0.2676,0.26759 0.66887,1.58421 0.89173,2.92581 l 0.40519,2.43928 -1.98159,3.27824 -1.98159,3.27823 1.179,1.42061 c 0.64845,0.78134 2.75944,1.94221 4.69108,2.5797 l 3.51207,1.15909 1.06555,-1.06555 1.06556,-1.06556 -1.13383,-1.36617 -1.13382,-1.36618 1.1762,-1.1762 C 217.87071,312.52929 219.12,312 220,312 c 0.88,0 2.10079,-0.50079 2.71287,-1.11287 l 1.11287,-1.11287 1.11365,0.68828 c 0.61251,0.37855 1.0484,1.21684 0.96865,1.86287 -0.0797,0.64602 -0.0917,1.98503 -0.0265,2.97557 l 0.11848,1.80099 3.75,3.50712 c 2.0625,1.92892 5.42275,4.3826 7.46723,5.45262 l 3.71723,1.9455 -0.52771,1.3752 -0.52772,1.37521 -1.66539,-0.12881 -1.66539,-0.12881 -0.0241,3.33504 -0.0241,3.33503 1.25,1.03741 c 0.6875,0.57058 1.25,1.43231 1.25,1.91496 l 0,0.87756 -3.94098,0 -3.94099,0 -0.6451,1.0438 -0.64511,1.04381 1.20853,1.45619 1.20854,1.4562 -3.01546,0 -3.01545,0 -0.56332,1.46797 -0.56331,1.46798 1.20632,0.75707 c 0.66348,0.41638 1.95396,0.63426 2.86774,0.48417 l 1.66141,-0.27289 0.61056,0.9879 0.61056,0.98791 -1.59365,1.30994 c -0.8765,0.72047 -2.50038,2.13645 -3.60862,3.14661 l -2.01499,1.83666 0.56845,2.26488 0.56845,2.26488 -0.73179,0.7318 c -0.40248,0.40248 -0.74774,1.03179 -0.76723,1.39845 -0.0195,0.36667 -0.60139,1.68585 -1.29312,2.93151 l -1.25769,2.26483 1.68773,0.64765 1.68774,0.64764 1.21563,-1.66248 1.21564,-1.66248 1.51731,0 1.51731,0 1.171,1.41097 1.17101,1.41097 -1.14273,0.70625 -1.14273,0.70624 0.49884,2.6095 0.49883,2.60949 -1.90793,3.73985 -1.90793,3.73986 -2.00901,1.07519 -2.009,1.07518 -3.73773,-0.29175 L 216.5,386.5 216.20349,389 c -0.16308,1.375 -0.76678,3.70517 -1.34155,5.17814 l -1.04505,2.67815 -1.40845,0.54047 -1.40844,0.54047 0,1.47389 0,1.47388 -4.25,0.3075 -4.25,0.3075 -0.32284,3.37716 -0.32284,3.37716 1.07284,1.07284 C 203.51722,409.91722 204,410.985 204,411.7 l 0,1.3 -2.39301,0 -2.39301,0 -0.54874,-1.42999 -0.54874,-1.42999 -4.59754,-0.68945 -4.59753,-0.68944 -1.86144,1.68458 -1.86144,1.68458 -0.57541,-0.93104 -0.57541,-0.93103 -2.77386,0.48691 -2.77387,0.48691 -1.5,1.7207 -1.5,1.72071 -3.86911,-1.14525 z m 77.9761,-49.11999 C 249.27314,363.54823 249,361.53906 249,359.9534 l 0,-2.88303 2.06706,-1.10626 2.06706,-1.10625 2.43294,1.59412 2.43294,1.59413 0,1.3545 c 0,0.74497 0.675,1.9147 1.5,2.59939 l 1.5,1.24489 0,1.37755 0,1.37756 -5.39301,0 -5.39301,0 -0.60699,-1.58179 z m -68.03302,-120.91012 -2.57263,-3.37289 -2.05572,-0.65246 -2.05571,-0.65246 0.41267,-1.16514 0.41268,-1.16514 1.7391,0.15501 1.73911,0.15501 4.02385,-3.90501 C 185.43043,230.75726 187.62124,229 188.08579,229 c 0.46454,0 2.41045,-1.37482 4.32425,-3.05516 l 3.47964,-3.05516 2.05516,2.05516 c 1.13034,1.13034 2.05516,2.46941 2.05516,2.9757 l 0,0.92055 -2.99876,0.65864 -2.99876,0.65863 -1.45166,2.07255 -1.45167,2.07255 1.43019,2.04189 1.43019,2.04189 -1.63475,1.80638 -1.63476,1.80638 -1.37639,0 -1.3764,0 -0.5756,-1.5 -0.57561,-1.5 -1.28602,0 -1.28602,0 -0.66818,1.74124 -0.66818,1.74125 2.04671,1.65732 2.04671,1.65733 -1.41222,0.54192 -1.41223,0.54192 -2.57262,-3.37289 z"
     id="path3137"
     style="fill:#fae2b8" />
  <path
     d="m 103.67534,616.34201 -0.65799,-0.65799 1.10002,-1.32544 1.10001,-1.32543 -2.56079,-0.97362 -2.5608,-0.97361 -1.461997,-2.82719 -1.461999,-2.8272 0.39971,-5.75461 0.399711,-5.75462 1.049576,-1.96115 C 99.598058,590.88252 99.845527,590 99.570721,590 c -0.274805,0 0.395927,-2.08929 1.490519,-4.64286 l 1.99016,-4.64286 -1.5257,-1.68588 -1.5257,-1.68588 0.0397,-3.92126 0.0397,-3.92126 2.96009,-5.5 c 1.62805,-3.025 2.9602,-6.2324 2.96032,-7.12756 L 106,555.24489 107.5,554 l 1.5,-1.24489 0,-2.64167 0,-2.64167 L 111,542 c 1.1,-3.00947 2,-6.5202 2,-7.80162 0,-3.21565 1.60058,-5.90879 5.59722,-9.41788 L 122,521.79282 l 0,-1.31485 0,-1.31485 3.5,-2.16312 3.5,-2.16312 0,-1.4681 c 0,-0.80745 0.72681,-2.90825 1.61514,-4.66844 l 1.61514,-3.20034 2.83945,-2.28694 2.83946,-2.28695 3.0454,-5.99296 3.04541,-5.99297 0,-1.98366 c 0,-2.04324 1.48531,-5.18662 3.84796,-8.14351 l 1.34796,-1.68698 -0.68415,-1.10699 -0.68416,-1.10699 1.58619,-2.42084 1.5862,-2.42084 0,-1.9855 0,-1.98549 -1.36825,-0.79969 -1.36825,-0.79969 -0.7037,-5.75 -0.70371,-5.75 0.53716,0 c 0.29544,0 2.13278,1.40098 4.08299,3.11328 l 3.54584,3.11329 1.47929,-1.22771 1.4793,-1.2277 -0.56473,-2.25005 -0.56472,-2.25004 1.50747,-0.57847 1.50747,-0.57847 0.6236,2.83924 0.6236,2.83925 1.90608,1.72497 1.90607,1.72497 1.47264,-0.5651 1.47263,-0.56511 0.41069,1.19383 c 0.22588,0.6566 0.043,2.49539 -0.40642,4.08619 l -0.8171,2.89237 0.54092,0.87523 0.54092,0.87523 2.6801,-2.11165 c 1.47406,-1.16141 2.7407,-2.63183 2.81476,-3.2676 0.0741,-0.63577 0.18656,-1.80845 0.25,-2.60595 L 174,459.6 l 1.2,1.2 c 1.80628,1.80628 2.30952,1.53955 5.12639,-2.71703 l 2.59217,-3.91703 2.0736,0.54226 2.0736,0.54226 1.96712,-1.78022 1.96712,-1.78022 0,-1.34501 0,-1.34501 1.75,-0.15231 c 0.9625,-0.0838 2.37434,-0.19868 3.13742,-0.25534 l 1.38742,-0.10302 0.79548,-2.1504 0.79549,-2.1504 -2.04009,-1.84426 -2.04009,-1.84427 3.85718,-0.64128 3.85719,-0.64128 1.68931,0.89398 1.68931,0.89399 0.61971,-1.00271 c 0.34084,-0.55148 1.2569,-1.0027 2.03569,-1.0027 l 1.41598,0 -0.57574,2.87872 -0.57575,2.87872 1.14455,0.70737 1.14455,0.70737 1.20619,-0.9637 c 0.66341,-0.53004 2.131,-1.24627 3.26131,-1.59162 l 2.05511,-0.62792 1.69731,3.84704 1.69731,3.84704 -1.51845,3.04381 -1.51845,3.04381 -2.93751,1.21676 -2.9375,1.21675 -1.67962,5.14792 c -0.92378,2.83136 -1.86876,5.48141 -2.09995,5.889 l -0.42035,0.74107 -3.56863,-1.49107 c -4.38901,-1.83385 -3.98997,-1.87786 -4.61413,0.50893 l -0.52301,2 -1.62501,0 -1.625,0 -0.55268,-1.44026 -0.55268,-1.44026 -2.41593,1.10078 -2.41594,1.10077 -0.0304,4.08949 -0.0304,4.08948 -1.13413,-2 c -1.13058,-1.99375 -2.76802,-3.45563 -3.90318,-3.48469 -0.32896,-0.008 -1.42216,1.81208 -2.42932,4.04555 l -1.83119,4.06087 -2.82068,0.56413 L 175,483.25 l 0,2.41018 0,2.41019 -1.61501,2.46481 -1.61501,2.46482 -3.28716,0 -3.28717,0 -1.11236,3.19093 -1.11237,3.19093 0.93299,3.05907 c 0.51315,1.68249 1.12864,5.42157 1.36775,8.30907 l 0.43475,5.25 -0.66514,0 c -0.36584,0 -1.64978,-1.33178 -2.85321,-2.95951 L 160,510.08099 l 0,-2.19549 0,-2.19548 -1.93699,1.75295 -1.93698,1.75295 -1.06984,-0.66119 -1.06984,-0.6612 -2.89754,2.06324 -2.89755,2.06323 -2.59563,0 -2.59563,0 0,3.49153 0,3.49152 2,1.24902 2,1.24902 0,2.69136 0,2.69136 -3.01219,2.14487 -3.0122,2.14487 -2.9878,-0.65623 -2.98781,-0.65623 0,5.04952 0,5.04952 3.00618,2.22256 3.00619,2.22257 0.98824,3.55737 c 0.54353,1.95655 0.99075,4.53955 0.99381,5.73998 l 0.006,2.18261 -2,0.63478 -2,0.63478 0,2.93261 0,2.93261 2,0 2,0 0.0153,0.75 c 0.008,0.4125 0.4012,1.35896 0.87283,2.10325 l 0.85751,1.35324 2.08,-1.11318 2.08,-1.11318 0.64215,3.423 0.64216,3.42299 -0.66237,2.08694 -0.66237,2.08694 1.59878,0 1.59877,0 0.64567,1.75 c 0.35512,0.9625 1.06246,2.03027 1.57186,2.37283 l 0.92619,0.62282 -1.12745,2.10666 -1.12744,2.10665 0.63261,2.52052 c 0.76056,3.03034 1.02223,3.05787 5.14897,0.54171 l 3.23317,-1.97133 1.42649,0.54739 1.42648,0.54739 0.65749,-2.07157 0.65749,-2.07156 2.06002,1.10249 2.06003,1.10249 0.85751,-1.35324 c 1.13926,-1.79787 1.10105,-2.60363 -0.16042,-3.38326 l -1.04856,-0.64805 1.16814,-1.40752 1.16815,-1.40752 -1.16461,-4.62509 c -0.64054,-2.5438 -0.94014,-4.84956 -0.66578,-5.12392 0.27435,-0.27436 2.53413,-0.19362 5.02172,0.17942 l 4.52288,0.67825 0.66371,1.07389 0.66371,1.0739 -1.7402,0.97387 -1.74021,0.97386 3.65084,3.00933 3.65083,3.00933 -1.55103,1.71387 C 182.69796,580.88624 182,582.12386 182,582.69388 c 0,0.57002 -0.88314,2.15914 -1.96254,3.53136 l -1.96253,2.49497 1.24757,1.70616 1.24758,1.70617 1.86995,-2.06627 1.86995,-2.06627 1.452,0 1.452,0 -0.51447,-1.34068 -0.51447,-1.34069 0.84244,-1.3631 0.84245,-1.3631 2.37171,1.2693 2.37171,1.2693 2.42244,4.43449 2.42244,4.43448 0.88218,0 0.88217,0 -0.69314,3.69477 c -0.38123,2.03213 -1.80444,5.8878 -3.16268,8.56817 l -2.46954,4.8734 -3.19861,-0.67365 c -1.75924,-0.37051 -4.72194,-1.38132 -6.58378,-2.24625 l -3.38517,-1.57261 -5.56278,1.16681 -5.56278,1.16681 -0.79155,-1.23873 -0.79154,-1.23872 0.45811,-1.25 c 0.25196,-0.6875 0.28404,-1.25 0.0713,-1.25 -0.21275,0 -1.17675,-0.30312 -2.14222,-0.67361 l -1.7554,-0.67361 0.56733,1.47844 0.56733,1.47843 -3.39372,0.0962 -3.39372,0.0962 0,-1.46841 0,-1.46842 1.99371,0.63278 1.99371,0.63278 -0.68776,-1.81539 c -0.37826,-0.99846 -1.25132,-2.38593 -1.94013,-3.08325 l -1.25239,-1.26785 -1.30357,0.26785 L 155.5,598.5 l 0.25,-1.25 0.25,-1.25 -1.5,0 -1.5,0 0,1 0,1 -2.59362,0 -2.59362,0 -0.52301,2 c -0.28766,1.1 -0.86804,2 -1.28975,2 -0.42171,0 -1.00363,0.90589 -1.29317,2.01309 l -0.52644,2.01309 1.98795,1.06391 1.98794,1.06392 1.67186,-0.7258 c 0.91952,-0.39919 2.57186,-0.75884 3.67186,-0.79922 l 2,-0.0734 -0.1,1.22222 C 155.345,608.45 155.2325,609.9 155.15,611 l -0.15,2 -1.5,0 -1.5,0 0,-1.5 0,-1.5 -0.91821,0 c -0.50502,0 -1.6415,0.27755 -2.52553,0.61678 l -1.60731,0.61679 1.21122,1.45943 1.21123,1.45943 -1.42739,0.88218 -1.42739,0.88217 -2.50831,-0.52113 c -1.37957,-0.28663 -3.52081,-0.72648 -4.75831,-0.97745 l -2.25,-0.4563 0,-1.48095 0,-1.48095 -1.09563,0 c -0.6026,0 -2.48341,0.98819 -4.1796,2.19598 l -3.08397,2.19598 -5.3864,0.21382 -5.3864,0.21382 -0.54099,-1.4098 -0.54099,-1.4098 -1.14301,0.0222 C 115.01436,613.03447 113.375,613.92446 112,615 l -2.5,1.95553 -2.58333,0.0222 c -1.42084,0.0122 -2.87943,-0.27386 -3.24133,-0.63575 z"
     id="path3135"
     style="fill:#f7d1b8" />
  <path
     d="m 466.05024,323.61722 -1.91886,-4.47654 -1.92854,-1.03212 -1.92854,-1.03213 -1.25847,-3.03821 -1.25847,-3.03822 -0.87868,0 -0.87868,0 0,-2.05668 0,-2.05668 -4.05782,2.41979 -4.05782,2.4198 -4.1843,-1.44161 c -2.30136,-0.79288 -4.63784,-1.80301 -5.19218,-2.24471 L 437.5,307.2368 l -10,0.15738 -10,0.15738 -1.67566,-0.9699 -1.67565,-0.9699 1.36275,-1.05588 1.36274,-1.05588 0.67576,-3.75827 0.67575,-3.75828 -3.36285,-0.0481 c -1.84956,-0.0265 -5.8935,-0.0182 -8.98653,0.0183 l -5.62368,0.0664 -2.5436,-3.33483 -2.54359,-3.33482 0.74723,-1.20905 0.74723,-1.20904 1.4583,0.5596 1.45831,0.55961 2.80892,-2.93188 2.80892,-2.93189 -0.63221,-1.99193 -0.63222,-1.99193 -5.27812,-2.14223 -5.27812,-2.14223 -1.52663,0.58582 -1.52662,0.58582 -1.28266,-1.54551 L 387.75511,272 385,272 l -2.75511,0 -1.10843,-1.33557 c -0.60963,-0.73457 -3.25223,-2.36538 -5.87244,-3.62402 -2.62021,-1.25865 -7.37515,-3.56222 -10.56653,-5.11906 l -5.80251,-2.83062 -2.45738,1.11965 -2.45738,1.11966 -2.30456,-2.16502 L 349.3711,257 l -1.9826,0 -1.9826,0 -3.82005,-3.91208 -3.82005,-3.91209 1.4994,-3.00561 1.4994,-3.00562 -0.91946,-0.91946 -0.91946,-0.91946 1.219,-2.91284 c 0.67045,-1.60206 1.29587,-3.5989 1.38981,-4.43741 0.094,-0.83852 0.48545,-3.6227 0.87,-6.18708 l 0.69918,-4.6625 -2.30183,-1.30364 c -1.26601,-0.717 -3.20184,-1.30782 -4.30184,-1.31292 l -2,-0.009 0.31304,-3 0.31304,-3 1.35565,-1.38298 1.35565,-1.38297 -2.81304,-2.36703 C 333.47716,208.06516 331.73927,207 331.16235,207 c -0.57692,0 -1.74946,-1.00013 -2.60565,-2.22251 l -1.5567,-2.2225 0,-4.64754 0,-4.64753 -4.42663,-1.23938 -4.42663,-1.23938 0.47615,-1.24082 0.47615,-1.24082 -8.29952,-4.14976 L 302.5,180 l -4.25,0 c -2.3375,0 -4.25,-0.1882 -4.25,-0.41821 0,-0.23002 -0.29024,-1.17458 -0.64499,-2.09902 l -0.64498,-1.68081 2.00623,1.25291 2.00623,1.25291 2.3206,-1.62541 2.32061,-1.62542 1.42636,1.18378 1.42637,1.18378 1.35975,-1.85958 1.35975,-1.85957 -0.56592,-0.9157 -0.56593,-0.91569 1.75295,-1.93698 1.75295,-1.93699 1.64501,0 c 0.90475,0 2.11168,0.46667 2.68206,1.03705 l 1.03705,1.03705 4.91295,-3.37674 4.91295,-3.37674 1.21685,-2.41031 1.21685,-2.41031 4.26304,-0.0714 4.26304,-0.0714 2.52011,1.31527 c 1.38606,0.7234 3.00417,1.31804 3.5958,1.32143 0.59162,0.003 2.13256,1.13116 3.42431,2.50616 l 2.34863,2.5 4.33925,0 4.33926,0 2.23643,1.25 c 1.23004,0.6875 2.57287,1.77065 2.98407,2.407 l 0.74765,1.15699 1.88949,-0.49411 1.8895,-0.49412 0.67188,1.08712 0.67187,1.08712 3.2539,0 3.25389,0 2.88006,-3.00614 2.88007,-3.00614 1.93367,0.61372 1.93368,0.61373 2.30526,-2.85759 2.30525,-2.85758 1.49587,2 1.49588,2 3.07222,-3.43011 C 395.6175,160.18333 397,158.11497 397,157.47353 c 0,-0.64144 0.72732,-2.62419 1.61626,-4.40612 l 1.61626,-3.23987 2.13374,0.7078 c 1.17356,0.38929 4.07106,0.92538 6.43889,1.19131 l 4.30515,0.48351 1.74072,-1.57534 1.74073,-1.57533 3.77426,0.61248 3.77426,0.61248 1.51412,2.31084 1.51413,2.31085 -1.79407,3.03712 -1.79407,3.03712 1.20981,1.20981 L 426,163.4 l 0,2.60887 0,2.60887 1.34736,1.84262 1.34735,1.84262 0.71166,-1.15149 0.71166,-1.15149 4.94099,0 4.94098,0 0,2.34996 0,2.34996 -2.96862,4.09806 -2.96862,4.09806 -2.03138,1.08717 -2.03138,1.08716 0,3.81898 0,3.81898 5.49297,3.48609 5.49296,3.48608 2.99783,4.13839 2.99784,4.13839 2.38102,0.5976 2.38102,0.59759 1.20959,2.26014 1.20959,2.26014 -0.28877,1.41363 c -0.15882,0.77749 0.04,2.65869 0.44187,4.18045 l 0.73063,2.76683 -2.02327,2.17173 c -2.47367,2.65517 -2.51088,3.76147 -0.27328,8.12532 l 1.75,3.41292 2.75,1.04132 2.75,1.04132 0,5.12205 0,5.12205 1.5862,2.42084 1.58619,2.42084 -0.57309,0.92728 c -0.3152,0.51001 -0.81713,2.6673 -1.1154,4.79398 -0.29827,2.12668 -0.78753,4.99169 -1.08723,6.36669 l -0.54493,2.5 -2.07567,2.2239 -2.07566,2.2239 1.55955,0.59846 1.55955,0.59846 0.66437,2.67764 0.66438,2.67764 1.83862,2 1.83862,2 0.23076,3 0.23076,3 -0.80599,1.89461 -0.80599,1.89461 1.85361,1.35539 c 1.01948,0.74546 2.5551,1.35763 3.41248,1.36036 l 1.55887,0.005 2.67803,2.24504 2.67804,2.24503 0.41417,4 0.41416,4 1.65073,3.18665 1.65072,3.18666 -0.49769,1.31334 c -0.27373,0.72234 -0.67578,3.33835 -0.89345,5.81335 -0.21766,2.475 -0.44051,4.97841 -0.49523,5.56314 l -0.0995,1.06314 -4.51544,0.23373 -4.51545,0.23374 -1.91887,-4.47653 z m -206.5272,-27.92603 c -1.08733,-0.65515 -2.48512,-1.8273 -3.1062,-2.60477 l -1.12923,-1.41358 1.04732,-3.58642 c 0.57603,-1.97253 1.59706,-4.418 2.26896,-5.43438 l 1.22164,-1.84796 1.66679,2.54385 1.66679,2.54384 3.42044,-1.6311 3.42045,-1.63109 0,-3.57425 0,-3.57424 1.91472,-1.19576 1.91472,-1.19576 1.15438,1.39093 1.15438,1.39094 2.88427,0.6335 2.88428,0.63349 -1.93284,4.18078 c -1.06306,2.29944 -2.40436,6.07446 -2.98065,8.38894 l -1.04781,4.20815 -1.72272,-0.65499 c -0.9475,-0.36024 -2.54289,-1.69141 -3.54531,-2.95815 L 268.85484,288 l -1.73936,0 -1.73936,0 -2.26158,3.05895 -2.26158,3.05895 1.19596,1.44105 1.19597,1.44105 -0.87245,-0.0588 c -0.47984,-0.0323 -1.76207,-0.59484 -2.8494,-1.25 z M 236.60337,278.9057 234.88693,276 l -2.44347,0 -2.44346,0 0,1 0,1 -1.39301,0 -1.39301,0 -0.57561,-1.5 -0.5756,-1.5 -1.58776,0 -1.58775,0 -2.91088,-3.187 -2.91087,-3.187 1.06512,-1.28339 1.06512,-1.2834 3.98337,2.03217 3.98338,2.03217 2.32772,-1.52518 2.32771,-1.52518 1.65794,2.53033 1.65793,2.53032 1.44543,-1.1996 1.44543,-1.1996 -0.89686,-1.11732 c -0.49327,-0.61453 -1.19087,-2.49465 -1.55021,-4.17805 l -0.65336,-3.06073 2.03789,-1.84426 2.03788,-1.84426 0,-3.9438 0,-3.9438 3.11047,-2.90561 3.11046,-2.90561 -0.6691,-3.56661 c -0.36801,-1.96164 -0.8851,-4.12951 -1.1491,-4.81748 l -0.48001,-1.25087 2.37874,-1.08382 2.37873,-1.08383 1.75149,2.96505 1.7515,2.96504 3.15841,-0.68138 c 1.73712,-0.37476 4.77899,-1.50146 6.7597,-2.50379 l 3.60129,-1.82242 3.85166,3.94445 c 4.28797,4.39129 4.9575,4.65924 5.8474,2.34019 l 0.61561,-1.60427 -3.59379,-4.89573 C 269.44687,230.20308 267.41799,228 266.91483,228 L 266,228 l 0,-1.82569 0,-1.82568 2.34915,-2.20692 2.34916,-2.20691 2.73476,1.03975 2.73476,1.03976 0.84699,-0.52347 0.84698,-0.52346 0.55809,0.903 0.55809,0.90301 -1.48899,1.23575 c -2.08816,1.73302 -1.90753,2.44458 1.64883,6.49505 l 3.13782,3.57377 -1.81034,1.32375 -1.81033,1.32375 2.13711,4.10014 2.13711,4.10013 -0.96827,0.59842 -0.96826,0.59842 0.5553,2.21249 0.5553,2.21248 -3.11212,2.30089 -3.11211,2.30088 1.14359,1.37794 1.14358,1.37794 -7.23949,-0.0229 -7.23949,-0.0229 -2.25362,2.82028 -2.25362,2.82029 1.06039,1.28366 c 0.58322,0.70602 1.15845,2.53012 1.27829,4.05356 l 0.2179,2.7699 -1.82113,2.24899 -1.82113,2.249 -6.27094,-1.13714 c -3.44901,-0.62543 -7.02372,-1.54002 -7.94379,-2.03242 l -1.67286,-0.89529 -0.64641,2.57552 -0.64642,2.57553 1.03524,1.24739 1.03525,1.24739 -2.33228,1.06266 -2.33228,1.06266 -1.71644,-2.90571 z m 53.16788,-48.59093 -1.72875,-0.45323 2.11692,-2.86329 2.11692,-2.86329 2.36183,1.54753 2.36183,1.54753 0,1.88499 0,1.88499 -2.75,-0.116 c -1.5125,-0.0638 -3.52794,-0.31996 -4.47875,-0.56923 z"
     id="path3133"
     style="fill:#f4c5b3" />
  <path
     d="m 134.63504,221.49132 -0.57894,-1.50869 1.00415,-2.6411 1.00415,-2.6411 -2.65501,-3.83118 -2.65501,-3.83118 -1.58546,0.88727 -1.58546,0.88727 -1.12089,-1.53292 -1.1209,-1.53291 -2.10509,1.12661 C 122.07877,207.49302 120.25004,208 119.17273,208 l -1.95875,0 -0.64086,-1.67005 -0.64086,-1.67005 1.28387,-0.86344 c 0.70613,-0.47489 2.07137,-1.3142 3.03387,-1.86513 l 1.75,-1.0017 0,-1.46481 0,-1.46482 -2,0 -2,0 0,-1.31194 0,-1.31194 3,-2.218 3,-2.21799 0,-4.47007 0,-4.47006 -2.09563,0 -2.09563,0 -2.96115,-2.10852 -2.96114,-2.10852 1.55677,-1.72022 1.55678,-1.72022 0,-2.21347 0,-2.21346 1.009,-1.2078 c 4.70423,-5.63104 8.85091,-11.63384 9.46923,-13.70779 0.40994,-1.375 2.07807,-4.8625 3.70695,-7.75 l 2.9616,-5.25 -3.47688,0 -3.47687,0 -0.41914,-4.75 c -0.23053,-2.6125 -0.77211,-5.5375 -1.20351,-6.5 l -0.78436,-1.75 4.65802,0 4.65801,0 1.51874,3.63486 c 0.83531,1.99917 2.44796,4.89169 3.58367,6.42781 l 2.06492,2.79296 -0.63974,1.66712 -0.63973,1.66713 -1.99496,0.52169 c -1.09722,0.28693 -1.98806,0.80671 -1.97964,1.15506 0.0317,1.31012 1.95335,3.63337 3.00534,3.63337 0.60148,0 1.97404,1.125 3.05013,2.5 l 1.95654,2.5 1.98634,-2.36078 1.98634,-2.36079 0,-2.48283 0,-2.48284 -1.85747,-0.48574 -1.85747,-0.48574 0.64723,-3.1646 0.64723,-3.1646 1.79945,-0.34655 1.79945,-0.34654 2.16079,1.96554 c 1.18843,1.08105 3.17329,2.48761 4.41079,3.12569 l 2.25,1.16015 0,3.96481 0,3.96482 -1,0 -1,0 0,8.89641 0,8.89641 3.29714,2.89493 c 3.85273,3.38274 6.70286,7.22442 6.70286,9.03476 l 0,1.27749 -1.61602,0 -1.61603,0 -4.95633,3.63829 -4.95634,3.63828 0.67071,7.15755 0.67072,7.15756 -4.09835,2.84016 L 146,210.272 l 0,2.74156 0,2.74155 1.53331,1.27254 1.53331,1.27253 -2.20762,2.34991 -2.20763,2.34991 -4.7187,0 -4.71869,0 -0.57894,-1.50868 z M 140,130 c 0,-0.55 0.45,-1 1,-1 0.55,0 1,0.45 1,1 0,0.55 -0.45,1 -1,1 -0.55,0 -1,-0.45 -1,-1 z m -11.5,-5 -2,-0.85943 1.5,-0.055 c 0.825,-0.0302 2.175,0.38124 3,0.9144 l 1.5,0.96937 -1,-0.055 c -0.55,-0.0302 -1.9,-0.44171 -3,-0.9144 z"
     id="path3131"
     style="fill:#f3ca94" />
  <path
     d="m 171.37459,278.31059 -2.1254,-0.41704 -3.12926,-3.89394 c -1.72109,-2.14166 -3.60701,-5.15053 -4.19094,-6.68637 l -1.06168,-2.79243 0.65096,-3.5104 0.65096,-3.51041 1.57037,-1.75 1.57038,-1.75 3.36645,0 3.36645,0 1.0962,-2.40591 1.09621,-2.40591 2.33226,-0.44584 2.33225,-0.44584 0.47026,1.22548 0.47026,1.22548 3.60763,0.6768 3.60763,0.67679 -0.58681,0.94948 -0.5868,0.94947 0.7937,1.25 0.7937,1.25 0.0153,3.89101 0.0153,3.89102 1.88329,1.10898 c 1.0358,0.60995 2.96639,2.16004 4.2902,3.44465 l 2.40691,2.33565 -0.60759,1.91435 -0.60759,1.91434 -5.32562,0 -5.32562,0 -0.59215,-1.54312 -0.59216,-1.54313 -1.80442,0.9657 c -0.99243,0.53113 -2.42514,2.12554 -3.18381,3.54312 l -1.3794,2.57743 -1.58102,-0.13618 c -0.86956,-0.0749 -2.53745,-0.32385 -3.70643,-0.55323 z"
     id="path3129"
     style="fill:#dec5ad" />
  <path
     d="M 73.657991,489.32466 C 73.296096,488.96276 73,487.4639 73,485.99385 l 0,-2.67282 -2.547053,-1.16051 C 69.052068,481.52223 67.077068,481 66.064058,481 l -1.841836,0 0.138889,1.75 0.138889,1.75 -3.75,0.31037 -3.75,0.31036 0,-2.06036 0,-2.06037 -0.920545,0 -0.920544,0 -0.640563,-2.91646 -0.640562,-2.91646 -1.462917,-0.56137 -1.462918,-0.56138 -0.860811,-2.27216 -0.86081,-2.27217 0.806512,-1.00809 0.806512,-1.00809 -2.728401,-3.34297 -2.7284,-3.34298 -3.443277,-0.28663 L 38.5,460.2246 38.65897,458.3623 C 39.210675,451.89916 40.697383,447 42.106989,447 L 43,447 l 0,-1.18555 c 0,-0.65205 0.8204,-2.11455 1.823111,-3.25 l 1.823111,-2.06445 1.063775,-3.68642 1.063774,-3.68641 -1.386886,-0.5322 L 46,432.06277 l -1.491571,0.57237 -1.49157,0.57237 -0.615418,-1.60376 L 41.786022,430 l -1.385405,0 c -0.761972,0 -2.513828,-0.98115 -3.893011,-2.18034 L 34,425.63933 l 0,-1.26814 c 0,-0.69748 -1.06655,-2.41897 -2.37011,-3.82554 l -2.37011,-2.55739 -0.578423,-3.5644 -0.578422,-3.5644 0.955686,-2.51365 0.955687,-2.51364 -0.570536,-0.92315 -0.570536,-0.92315 1.64395,-0.63084 1.64395,-0.63084 -0.516034,-1.97332 -0.516034,-1.97332 2.765037,-1.04368 2.765037,-1.04369 0.920429,-2.09509 L 38.5,392.5 l 2.25,-0.31955 2.25,-0.31955 0,-1.23045 c 0,-0.67675 -0.491688,-1.72214 -1.092641,-2.32309 l -1.09264,-1.09264 1.127824,-2.10736 L 43.070368,383 42.035184,383 41,383 l 0,-2 0,-2 -1.811439,0 -1.811438,0 -2.188562,-2.03896 c -2.81565,-2.62317 -2.755828,-3.35933 0.443329,-5.4555 l 2.63189,-1.72448 -1.291206,-0.79801 -1.291206,-0.79801 -1.340684,0.51447 L 33,369.21398 32.88465,367.85699 c -0.237039,-2.78856 -0.425318,-3.41228 -1.715975,-5.68455 l -1.322059,-2.32756 -1.281822,0.49188 -1.281822,0.49188 -1.126277,-3.66432 -1.126277,-3.66432 0.984791,-0.33333 C 26.556844,352.98333 27,352.24398 27,351.52366 l 0,-1.30968 1.5,-0.57561 1.5,-0.5756 0,-1.964 0,-1.96399 -2.091421,-0.6638 -2.091421,-0.66379 0.497801,-1.90359 L 26.812761,340 23.65638,339.995 20.5,339.99 l -0.235474,-4.10765 -0.235473,-4.10766 2.172226,0.56805 2.172227,0.56805 4.563247,-4.15115 c 2.509786,-2.28314 4.886681,-4.67289 5.281988,-5.31057 l 0.718742,-1.15942 -2.468742,0.47193 L 30,323.23315 l 0,-1.41774 c 0,-0.77976 1.879959,-4.31093 4.177686,-7.84706 l 4.177686,-6.42931 0.213759,-5.01952 0.213759,-5.01952 -2.910816,-4.61773 -2.910815,-4.61774 0.564879,-1.47205 0.56488,-1.47205 -1.545509,-1.28266 L 31,282.75511 l 0,-1.84237 0,-1.84237 -2.1351,-1.14267 -2.135099,-1.14267 1.186269,-0.73316 1.186269,-0.73315 -1.21361,-2.66359 -1.21361,-2.66358 0.53356,-0.53356 c 0.293458,-0.29346 2.607758,-0.62906 5.142888,-0.74578 L 36.960896,268.5 36.41306,266.75 35.865225,265 l 1.510227,0 c 0.830625,0 3.170512,0.97959 5.199748,2.17687 2.029236,1.19728 4.491003,2.23592 5.470594,2.30809 l 1.781074,0.13121 8.086566,6.2557 C 62.361045,279.31251 66,282.2673 66,282.43806 c 0,0.17077 -0.67338,2.21905 -1.496399,4.55173 l -1.496399,4.24125 4.028321,4.81139 4.028322,4.81139 4.639522,3.07309 c 2.551737,1.6902 4.982048,3.07309 5.40069,3.07309 0.418642,0 1.046817,0.9 1.395943,2 l 0.634775,2 1.413561,0 1.41356,0 0.612679,2.44111 0.61268,2.44111 2.906372,0.63834 2.906373,0.63835 0,1.94555 0,1.94554 3.085948,0.61719 3.085948,0.61719 0.477789,1.60781 c 0.262784,0.8843 1.212245,3.10239 2.109915,4.9291 l 1.63213,3.32129 3.87261,1.87105 3.87262,1.87104 1.43152,-0.54932 1.43152,-0.54933 0,3.00124 0,3.00123 2.78977,2.98645 2.78976,2.98646 -0.33877,1.01631 -0.33877,1.01631 2.95338,2.10299 c 1.62435,1.15665 3.4464,2.10299 4.049,2.10299 l 1.09563,0 0,3.03518 0,3.03519 1.56808,2.39319 1.56808,2.3932 -1.96812,1.05331 -1.96812,1.0533 -0.61148,-1.59349 -0.61148,-1.5935 -2.98848,0.43862 -2.98848,0.43861 0,-1.21017 0,-1.21018 -2.21312,-0.57874 -2.21313,-0.57875 -1.78334,1.61391 -1.78335,1.6139 1.0088,1.21553 1.0088,1.21553 -1.38507,1.14951 -1.38506,1.1495 -0.68289,6.03591 -0.68288,6.0359 -1.42607,0.54723 -1.42606,0.54723 1.05869,1.97818 1.05869,1.97818 -0.60112,1.56648 -0.60111,1.56648 1.64759,1.82056 1.64758,1.82056 -2.87347,1.2373 c -1.58042,0.68052 -3.02244,1.33265 -3.2045,1.44917 -0.18206,0.11653 0.17127,1.15042 0.78518,2.29752 l 1.11621,2.08565 -1.64218,0 -1.64217,0 0.70927,1.75 c 0.3901,0.9625 1.15727,2.9875 1.70482,4.5 l 0.99554,2.75 1.92718,0 1.92717,0 0.60259,3.01297 0.6026,3.01297 2.1224,0.53878 2.12241,0.53877 2.06091,2.918 2.0609,2.91801 -0.9461,6.98925 -0.94609,6.98925 -4.43183,0.66459 -4.43182,0.6646 0.6352,3.75975 0.63521,3.75976 -2.97256,2.11665 -2.97256,2.11665 -2.96673,0 -2.966726,0 -2.247975,3.25 -2.247976,3.25 -3.130926,2.08062 -3.130927,2.08062 0.285087,1.27464 0.285086,1.27464 -1.157531,1.39474 -1.157531,1.39474 0.983175,1.25 0.983175,1.25 -1.363598,3.25 -1.363599,3.25 -3.36629,0 -3.366289,0 -0.619837,3.75 c -0.34091,2.0625 -0.624789,5.3824 -0.630842,7.37756 L 77,487.75511 l -1.342009,1.11377 -1.34201,1.11377 -0.65799,-0.65799 z"
     id="path3098"
     style="fill:#e2ce89" />
  <path
     d="m 149,385.03407 c 0,-0.56996 -1.82561,-2.80798 -4.05691,-4.97339 l -4.0569,-3.93709 0.63822,-3.40204 0.63823,-3.40204 4.25744,-2.06842 4.25744,-2.06843 1.39746,0.86368 1.39746,0.86368 -1.19983,3.17872 -1.19984,3.17872 0.9988,1.86627 0.9988,1.86627 1.24921,0 1.2492,0 1.68926,2.85968 1.68926,2.85969 -0.64032,0.64031 c -0.35217,0.35218 -1.7199,0.64032 -3.03939,0.64032 -1.31949,0 -3.26949,0.46583 -4.33333,1.03518 L 149,386.07037 l 0,-1.0363 z"
     id="path3096"
     style="fill:#e2ce89" />
  <path
     d="m 158.00081,370.50151 -1.33716,-2.4985 0.55018,-0.55017 0.55017,-0.55018 2.55444,0.64113 2.55443,0.64112 -1.09695,2.40754 c -1.38724,3.04467 -2.10626,3.02735 -3.77511,-0.0909 z"
     id="path3094"
     style="fill:#e2ce89" />
  <path
     d="m 199.5,613.28307 c -2.75,-0.82979 -5.14275,-1.63819 -5.31723,-1.79645 -0.17448,-0.15826 0.82675,-2.54531 2.22496,-5.30454 l 2.5422,-5.01679 0.65285,-4.08265 0.65284,-4.08264 -1.03279,0 -1.03279,0 -2.50256,-4.25 -2.50256,-4.25 -3.0206,-1.76409 -3.0206,-1.76409 -0.7186,2.26409 c -0.39522,1.24525 -0.75825,2.48909 -0.80673,2.76409 -0.0485,0.275 -1.21833,1.47215 -2.59967,2.66032 l -2.51153,2.16033 -0.67858,-1.09796 -0.67858,-1.09797 1.92499,-2.44722 C 182.13376,584.83153 183,583.2639 183,582.69388 c 0,-0.57002 0.69036,-1.79923 1.53412,-2.73159 l 1.53413,-1.69518 -3.39207,-2.97828 -3.39207,-2.97827 1.42561,-0.90528 1.42562,-0.90528 -0.63496,-1.64655 -0.63496,-1.64654 -4.44579,-0.66669 -4.4458,-0.66669 -1.84272,0.58486 -1.84272,0.58485 1.51646,4.60631 1.51646,4.60631 -1.08899,1.74374 -1.08898,1.74374 1.0412,1.0412 1.0412,1.0412 -0.67356,1.08983 -0.67356,1.08984 -1.89732,-1.01542 -1.89733,-1.01542 -1.09216,2.04073 -1.09216,2.04072 -0.87305,-0.53958 -0.87306,-0.53958 -3.49361,2.06128 -3.4936,2.06128 -0.61408,-1.9348 -0.61408,-1.9348 1.16354,-2.55371 1.16355,-2.55371 -1.63263,-1.63263 C 153.73468,577.59183 153,576.43929 153,575.92857 L 153,575 l -1.25,-0.006 -1.25,-0.006 -0.10208,-5.01258 c -0.0561,-2.75692 -0.3551,-5.2656 -0.66435,-5.57485 l -0.56228,-0.56228 -2.04366,1.09373 -2.04366,1.09374 -1.07717,-2.01272 -1.07717,-2.01271 -1.46481,0 -1.46482,0 0,-1.87803 0,-1.87803 2.14336,-1.42313 2.14336,-1.42314 -0.7344,-4.89736 -0.73441,-4.89735 -3.40895,-3.12249 -3.40896,-3.12248 0,-4.19805 0,-4.19804 2.51014,0.63 2.51014,0.63001 3.48986,-2.66185 3.48986,-2.66184 0,-2.91393 0,-2.91392 -2,-1.07037 -2,-1.07037 0,-2.96481 0,-2.96482 2.09563,0 2.09563,0 2.89755,-2.06323 2.89754,-2.06324 1.05063,0.64933 1.05063,0.64932 1.45619,-1.20853 1.4562,-1.20854 0.0269,1.37245 c 0.0148,0.75484 1.29672,2.90357 2.84872,4.77496 l 2.82181,3.40251 1.00737,-0.62259 1.00737,-0.62258 -0.43763,-5.27993 c -0.2407,-2.90396 -0.86444,-6.67761 -1.3861,-8.38589 l -0.94847,-3.10596 1.00527,-2.64404 1.00526,-2.64404 2.95665,0 2.95666,0 2.0681,-2.90437 2.06809,-2.90437 0,-2.01618 0,-2.01617 2.75,-0.61118 2.75,-0.61118 1.73378,-4.10418 1.73378,-4.10418 1.51622,1.25835 1.51622,1.25835 0,1.37755 0,1.37756 1.5,0 1.5,0 0,-4.03138 0,-4.03139 1.69003,-0.64852 1.69003,-0.64853 0.3933,1.17991 0.39331,1.17991 2.34928,0 2.34927,0 0.61259,-1.93009 0.61259,-1.93009 3.42268,1.43009 c 1.88248,0.78655 3.63914,1.43009 3.9037,1.43009 0.26456,0 1.28585,-2.55321 2.26953,-5.6738 l 1.78851,-5.6738 3.43062,-2.02412 c 1.88684,-1.11326 4.2615,-2.08533 5.27703,-2.16014 l 1.8464,-0.13603 0.80056,3.08395 0.80055,3.08394 3.3906,0 3.39059,0 0.58712,-2.48992 0.58712,-2.48992 0.90995,1.47234 c 0.50048,0.80979 0.96996,2.2868 1.0433,3.28226 l 0.13334,1.80992 -0.90114,0.55694 -0.90115,0.55693 1.65507,1.82883 1.65507,1.82883 -0.95031,1.69812 -0.95032,1.69811 1.3428,2.69171 1.3428,2.6917 -0.97518,3.40028 -0.97519,3.40027 2.74278,2.24584 c 1.50852,1.23521 3.13537,2.26202 3.61521,2.2818 l 0.87245,0.036 -1.26947,1.52961 -1.26946,1.52962 1.12905,2.47799 1.12905,2.478 3.42071,1.63122 3.42071,1.63123 1.28406,2.61116 c 1.90195,3.86767 2.43799,9.32991 1.44483,14.72268 l -0.57303,3.11151 1.51933,1.26094 1.51933,1.26093 0,1.5 0,1.5 -1.36732,-1.13478 -1.36732,-1.13477 -1.23987,1.49395 -1.23988,1.49396 -2.07465,-1.45315 -2.07466,-1.45315 -1.29714,1.07653 -1.29713,1.07653 1.18521,2.145 c 0.65187,1.17974 1.29481,3.65351 1.42875,5.49725 l 0.24353,3.35225 -3.19976,2.93575 -3.19976,2.93575 -2.26442,-0.56068 -2.26442,-0.56067 -4.21927,3.9357 -4.21928,3.9357 1.61311,1.83697 c 0.8872,1.01033 2.27867,3.18697 3.09214,4.83697 l 1.47905,3 1.76353,9.23935 1.76354,9.23935 -1.65172,2.52084 -1.65172,2.52084 0.96265,1.79873 0.96265,1.79872 -0.3279,2.94109 -0.32789,2.94108 0.87396,1.64499 0.87396,1.645 -1.50421,1.24839 -1.50422,1.24838 1.52523,1.68536 1.52523,1.68536 -5e-4,2.92126 -4.9e-4,2.92126 -5.74951,0 -5.7495,0 -1.10464,-0.71918 -1.10464,-0.71918 -2.27094,2.41731 -2.27094,2.4173 -2.80532,0.61616 -2.80532,0.61615 -1.19155,1.43572 -1.19154,1.43572 -2.12755,-0.10412 c -1.17016,-0.0576 -4.37756,-0.7834 -7.12756,-1.61318 z"
     id="path3125"
     style="fill:#f0ad80" />
  <path
     d="M 344.66667,405.33333 C 344.3,404.96667 344,403.97835 344,403.13708 l 0,-1.52958 -2.636,-3.80375 -2.636,-3.80375 -1.364,0 -1.364,0 0,-1 0,-1 -1.75,-0.0318 c -2.08444,-0.0379 -5.25,-2.27246 -5.25,-3.706 0,-0.55952 -0.65833,-1.56368 -1.46296,-2.23146 l -1.46297,-1.21415 1.67736,-2.55997 1.67735,-2.55996 -2.20165,-1.46185 -2.20166,-1.46184 2.09636,-2.94406 2.09635,-2.94406 0.64091,0.64091 c 0.3525,0.3525 0.65054,1.16591 0.66232,1.80757 l 0.0214,1.16667 2.9786,-0.30772 2.97859,-0.30771 1.5,-1.884 c 0.825,-1.0362 3.20445,-3.22452 5.28767,-4.86294 l 3.78766,-2.97895 -1.94528,-0.6174 -1.94529,-0.61741 -0.57616,-1.50147 -0.57617,-1.50147 1.23378,-2.14216 c 1.58261,-2.74781 5.90138,-6.70625 7.36135,-6.74717 0.62015,-0.0174 1.68775,-0.7066 2.37244,-1.5316 l 1.24489,-1.5 3.31854,0 3.31854,0 0.59083,-0.95598 0.59082,-0.95598 -1.54493,-3.69756 -1.54494,-3.69756 -0.61836,0.61836 -0.61836,0.61835 -1.89652,-1.01499 -1.89653,-1.01499 0.55502,-0.89803 0.55501,-0.89803 -5.24451,-2.50994 -5.24452,-2.50993 -1.78249,1.61313 -1.78249,1.61313 0,-1.5732 c 0,-0.86527 -0.27314,-2.28501 -0.60699,-3.15499 L 339.78602,328 l 2.10699,0 2.10699,0 0,-4 0,-4 -1.96862,0 -1.96861,0 0.53679,-1.39885 0.53679,-1.39885 -0.98416,-0.60824 -0.98416,-0.60825 3.08286,-3.08285 3.08286,-3.08286 3.24719,-0.52695 3.24719,-0.52694 2.30844,1.61689 2.30844,1.6169 1.79894,0 1.79893,0 1.15,-2.52398 1.15,-2.52397 2.47949,-0.62232 2.47949,-0.62231 1.87488,1.17088 1.87488,1.17089 5.22419,-0.13534 5.22419,-0.13534 2.65286,1.04906 c 1.45907,0.57699 2.94813,1.52682 3.30902,2.11075 l 0.65615,1.06168 1.88428,0 1.88428,0 1.30671,-1.8413 c 0.71868,-1.01272 2.28974,-2.36278 3.49123,-3.00014 l 2.18452,-1.15885 2.46834,0.93846 c 1.35758,0.51616 2.72551,1.35459 3.03984,1.86318 l 0.57151,0.92473 6.27563,-0.34233 C 414.67597,309.19547 422,308.86511 427.5,308.64963 l 10,-0.3918 0.5,0.69495 c 0.275,0.38222 2.62607,1.38376 5.2246,2.22564 l 4.72459,1.53069 3.17082,-1.92829 3.17082,-1.92829 0.60458,0.83578 c 0.33253,0.45967 1.84774,2.74285 3.36713,5.07373 l 2.76255,4.23796 1.04287,0 1.04288,0 2.11415,5.08721 2.11414,5.0872 4.3281,-0.34422 4.32809,-0.34423 0.30013,0.9004 c 0.30753,0.92259 -1.82653,7.37935 -4.49953,13.61364 -0.82535,1.925 -1.77796,4.2875 -2.1169,5.25 l -0.61625,1.75 -1.28139,-0.004 c -0.70476,-0.002 -2.77106,-0.91197 -4.59178,-2.02203 l -3.31039,-2.01829 0.67425,-2.12438 0.67425,-2.12437 -2.226,0.58211 -2.22599,0.58211 0.54656,-2.7328 0.54656,-2.7328 -0.68442,-1.02585 c -1.08097,-1.62021 -4.28786,-2.54344 -9.52132,-2.74107 l -4.8369,-0.18266 -0.85566,1.59882 -0.85567,1.59883 1.83567,1.57174 c 1.00962,0.86446 2.78377,1.87267 3.94256,2.24045 l 2.1069,0.66871 0,0.87359 c 0,1.31173 -2.05048,2.32389 -5.45477,2.6926 l -3.04523,0.32982 -1.5,1.79865 -1.5,1.79866 -4.5,1.80566 c -2.475,0.99312 -5.58339,2.3143 -6.90753,2.93595 l -2.40754,1.13029 -0.44101,1.68083 c -0.54292,2.06927 -0.99772,2.2448 -9.94783,3.83946 l -7.20391,1.28354 -0.61037,2.77899 -0.61037,2.77898 -1.51954,1.26111 -1.51955,1.26111 -1.64412,-1.03708 -1.64412,-1.03709 -1.80884,2.29957 -1.80885,2.29958 -1.36303,-0.52305 -1.36304,-0.52305 -1.17773,3.56855 -1.17772,3.56855 -3.92245,0 -3.92245,0 0,1.88922 0,1.88921 -1.89841,2.34444 -1.89841,2.34444 -3.63552,-1.73365 C 372.56813,383.78015 370.03329,383 368.93469,383 l -1.99746,0 -0.52064,1.35678 -0.52065,1.35677 -2.44367,-0.26825 -2.44366,-0.26824 -0.56332,0.91147 -0.56332,0.91147 -1.92193,0 -1.92194,0 -0.62572,2.49309 -0.62573,2.49309 -0.85553,-0.52875 -0.85554,-0.52875 -2.76073,4.17173 -2.76072,4.17174 -0.19582,2.61392 c -0.10771,1.43766 -0.23239,2.95143 -0.27707,3.36393 -0.1007,0.92961 -1.51934,0.97857 -2.41457,0.0833 z"
     id="path3123"
     style="fill:#ebb57c" />
  <path
     d="m 282.08542,294.60292 c -0.67686,-0.81557 -2.01906,-1.62237 -2.98267,-1.79289 l -1.752,-0.31003 0.83391,-3.17551 0.83392,-3.17552 3.51611,-1.16042 3.51612,-1.16042 2.72459,-2.27723 c 1.49853,-1.25248 3.68381,-2.57722 4.85618,-2.94387 l 2.13157,-0.66663 0.60221,1.56933 0.60221,1.56934 -1.22433,1.96046 -1.22433,1.96047 -1.58514,0 -1.58514,0 -2.09424,2.25 -2.09424,2.25 -0.33007,2.99145 -0.33008,2.99145 -1.59196,0.30144 -1.59196,0.30144 -1.23066,-1.48286 z M 323,288.45671 c -2.475,-1.43771 -5.2658,-3.30373 -6.20179,-4.14672 l -1.70179,-1.5327 -3.52997,2.18164 -3.52998,2.18165 -1.03252,-0.63814 c -0.56789,-0.35098 -1.92275,-2.38312 -3.0108,-4.51587 l -1.97827,-3.87773 1.07968,-0.66728 1.07968,-0.66728 -0.50113,-1.91632 -0.50113,-1.91632 3.66401,0.65957 c 2.0152,0.36276 4.22651,1.106 4.91401,1.65162 l 1.25,0.99206 1.27429,-1.05756 1.27428,-1.05757 4.20457,0.56395 4.20457,0.56396 0.62566,3.33505 0.62566,3.33505 4.89549,-2.48073 4.89548,-2.48073 0,-1.91673 0,-1.91674 -2.72731,-0.31642 -2.72731,-0.31642 -1.71831,-4.5 -1.7183,-4.5 -0.0544,-5.58948 -0.0544,-5.58949 2.43386,-1.10894 2.43386,-1.10894 0.31614,0.88111 0.31614,0.88112 4.26051,0.39029 4.26052,0.39029 2.7942,2.67702 2.79421,2.67702 1.94528,0.0316 1.94528,0.0316 2.75,2.42044 2.75,2.42043 0,1.32546 c 0,0.729 -0.69503,2.31775 -1.5445,3.53055 l -1.54451,2.20509 1.09381,2.0438 1.09381,2.0438 -1.92497,2.72362 -1.92497,2.72361 -0.70379,3.25 -0.70379,3.25 -1.42055,0 -1.42054,0 0,1.4121 0,1.4121 -3.75,0.55867 c -2.0625,0.30726 -6.225,0.81272 -9.25,1.12325 l -5.5,0.56459 -4.5,-2.614 z M 173.5,185.04872 c -1.1,-0.41356 -2.97439,-1.08622 -4.16531,-1.4948 l -2.1653,-0.74289 -0.59826,-2.38367 -0.59827,-2.38367 -4.73643,-4.64473 -4.73643,-4.64474 2,0.56736 c 5.45006,1.54607 14.0548,4.83322 14.92204,5.70046 L 174.4,176 l 2.8,0 2.8,0 0,1.46607 c 0,1.80464 -3.15727,8.57155 -3.93521,8.43425 -0.31064,-0.0548 -1.46479,-0.43804 -2.56479,-0.8516 z"
     id="path3121"
     style="fill:#afb1b7" />
  <path
     d="m 211.25,316.50913 c -3.78332,-1.64438 -3.87359,-2.04324 -1.33427,-5.89503 l 1.90254,-2.8859 -0.46994,-2.59157 c -0.25847,-1.42537 -0.67169,-2.79333 -0.91828,-3.03992 -0.24659,-0.24658 0.49411,-1.45154 1.64601,-2.67767 l 2.09435,-2.22933 -1.69459,-2.58627 -1.69459,-2.58627 -0.93442,0.57751 -0.93442,0.5775 -1.45619,-1.20853 -1.4562,-1.20854 0,0.74489 0,0.74489 -1.5,-1.24489 -1.5,-1.24489 -1.39641,1.15891 -1.3964,1.15892 -0.41463,-4.78647 -0.41463,-4.78647 1.38816,-2.19218 1.38816,-2.19219 -0.32712,-2.30781 L 201.5,273.5 l -2.25,-0.31955 -2.25,-0.31955 0,-1.00737 c 0,-1.29162 -5.00862,-6.28424 -7.09222,-7.06955 l -1.59221,-0.60012 0.17948,-3.84193 0.17948,-3.84193 -0.87235,-1.14474 c -0.4798,-0.62961 -0.74406,-1.71744 -0.58727,-2.4174 L 187.5,251.6652 184,250.64407 c -1.925,-0.56162 -3.81709,-1.49232 -4.20464,-2.06823 l -0.70465,-1.0471 1.55102,-0.86799 1.55102,-0.868 1.05682,1.05682 1.05682,1.05682 2.01006,-1.07575 2.01006,-1.07575 -2.41326,-1.82345 -2.41325,-1.82346 1.21722,-1.22121 1.21721,-1.2212 0.63978,1.66721 0.63977,1.66722 1.71869,0 1.7187,0 2.15949,-2.29867 2.15948,-2.29866 -1.41029,-2.01348 -1.41029,-2.01347 0.87512,-1.41598 0.87513,-1.41598 3.23962,-1.09077 3.23963,-1.09078 0.38423,-1.15269 0.38424,-1.1527 -2.6462,-2.6462 -2.6462,-2.6462 -2.67767,2.4956 c -1.47271,1.37259 -3.69016,3.01642 -4.92766,3.65298 l -2.25,1.15737 0,-2.41274 0,-2.41274 -1.48727,-1.23432 -1.48726,-1.23432 -1.52139,0.58381 -1.52138,0.58381 -1.07656,2.36279 -1.07656,2.3628 -2.66479,1.54831 -2.66479,1.54832 -3.17953,-0.4862 -3.17953,-0.4862 -0.68354,-4.14685 c -0.37594,-2.28076 -1.1299,-4.69988 -1.67547,-5.37583 l -0.99194,-1.22898 -1.82925,0.97898 C 159.95465,220.55946 158.00242,221 156.62245,221 l -2.50904,0 -1.58047,2.25 -1.58047,2.25 -2.72623,0 -2.72624,0 0.34355,2 0.34355,2 3.44543,3.17058 3.44544,3.17058 -0.47311,2.32942 c -0.26021,1.28118 -0.71993,3.80905 -1.0216,5.61748 l -0.54848,3.28805 1.48183,0.56864 1.48184,0.56863 -2.28317,1.79594 -2.28317,1.79594 -2.79287,-0.53389 -2.79288,-0.53389 -2.88269,2.13126 -2.88268,2.13126 -2.2195,0 c -1.22072,0 -3.73852,0.54929 -5.59511,1.22064 l -3.37562,1.22064 -0.90002,-1.45627 -0.90003,-1.45627 1.70465,-0.88869 C 128.7603,252.61565 131,250.0145 131,248.75685 l 0,-0.86089 -2.98553,-1.04076 -2.98553,-1.04076 1.07543,-2.00945 1.07542,-2.00946 -0.48666,-1.86099 -0.48666,-1.861 1.33732,-1.10989 1.33733,-1.10988 -0.5803,-1.67688 c -0.31916,-0.92229 -1.27842,-2.23939 -2.13169,-2.92689 l -1.55139,-1.25 -2.84259,0 -2.8426,0 -2.09681,-3.55383 -2.09681,-3.55382 -2.61946,0.30382 L 109.5,223.5 l -0.0459,2.71261 c -0.054,3.18601 0.14708,2.95596 -4.95406,5.66876 -2.2,1.16996 -5.125,2.98771 -6.5,4.03944 l -2.5,1.91224 -6.731397,0.66108 -6.731398,0.66107 1.522302,-3.64338 1.522303,-3.64338 -2.061307,-3.33527 -2.061307,-3.33526 -1.729598,0.42319 -1.729598,0.4232 -4.934473,-1.79616 -4.934474,-1.79615 -0.705543,-2.63813 -0.705543,-2.63812 1.947559,-0.5093 1.94756,-0.5093 -1.287994,-2.0624 -1.287994,-2.06241 1.559592,-1.55959 1.559593,-1.55959 4.420858,1.01898 c 2.431473,0.56044 5.636014,1.02998 7.121203,1.04342 l 2.700343,0.0245 0.701663,-6.20188 0.701662,-6.20188 3.69367,-7.04812 3.69367,-7.04812 -0.235974,-5.5 c -0.129785,-3.025 -0.0091,-7.14842 0.268246,-9.16316 l 0.50422,-3.66316 1.886078,-0.49322 L 98,165.18724 l 0,-2.0346 0,-2.03461 1.183624,-0.73152 1.183626,-0.73152 -1.933626,-0.75721 C 97.370131,158.48132 94.5875,158.10894 92.25,158.07029 L 88,158 l 0.05644,-3.75 0.05644,-3.75 1.193558,-3.5 1.193558,-3.5 1.166667,0 c 0.641666,0 1.493292,-0.32663 1.8925,-0.72583 l 0.725834,-0.72584 -1.294952,-1.56032 -1.294952,-1.56032 2.902451,-3.0499 C 96.193897,134.20034 98.4,132.30753 99.5,131.67154 l 2,-1.15634 8.5,-0.0406 8.5,-0.0406 2.56163,-0.77811 2.56163,-0.7781 1.18837,2.60818 1.18837,2.60819 0,4.45294 0,4.45295 3,0 c 1.65,0 3,0.25737 3,0.57193 0,0.31456 -1.07827,2.45206 -2.39616,4.75 -1.31789,2.29794 -2.73205,5.30307 -3.14259,6.67807 l -0.74643,2.5 -4.09424,5.25 c -2.25183,2.8875 -4.43766,5.25 -4.85741,5.25 L 116,168 l 0,3.17126 0,3.17126 -1.56445,1.72869 -1.56444,1.7287 3.40883,2.60004 3.40884,2.60005 1.65561,0 1.65561,0 0,3.93191 0,3.9319 -3,2.13619 -3,2.13619 0,1.9319 0,1.93191 2,0 2,0 0,0.78439 c 0,0.43142 -1.38129,1.60034 -3.06953,2.59761 l -3.06953,1.81322 0.56953,1.48418 c 0.31324,0.8163 0.56953,1.89737 0.56953,2.40239 l 0,0.91821 2.56574,0 c 1.41116,0 3.50215,-0.50115 4.64664,-1.11366 l 2.0809,-1.11367 0.90675,1.62028 0.90675,1.62027 1.7319,-0.92688 1.7319,-0.92689 2.24479,3.27606 2.24479,3.27605 -1.03022,2.7097 -1.03023,2.70969 1.03533,1.93452 1.03533,1.93453 4.77772,0 4.77773,0 2.72596,-2.84529 2.72597,-2.8453 -1.53888,-1.27715 -1.53887,-1.27715 0.0214,-2.62755 0.0213,-2.62756 4.08303,-2.88988 4.08303,-2.88989 -0.66944,-7.14387 -0.66943,-7.14388 4.47853,-3.21624 4.47854,-3.21624 3.38652,0 3.38652,0 0.95,0.87089 c 0.5225,0.47899 2.189,1.16294 3.70333,1.51989 l 2.75334,0.649 2.14437,-4.41377 2.14438,-4.41378 -0.61633,-1.60611 -0.61632,-1.60612 -2.97237,0 -2.97237,0 -0.54617,-0.88373 c -0.30039,-0.48605 -4.15195,-2.13893 -8.55902,-3.67308 L 157,167.65384 l 0,-7.32692 0,-7.32692 1.05435,0 1.05436,0 -0.3573,-6.75 -0.35729,-6.75 -1.19706,-2.18426 c -1.71839,-3.13553 -1.50485,-5.37682 1.2302,-12.9118 l 2.42727,-6.68704 1.42713,-1.42713 1.42713,-1.42713 3.06868,3.06868 3.06868,3.06868 4.99359,0 4.99359,0 0.35205,-1.05614 0.35205,-1.05614 6.79081,1.08484 6.79081,1.08484 1.88006,1.17411 1.88006,1.17412 1.74503,3.86979 1.74503,3.86979 1.66647,1.1774 c 0.91656,0.64756 2.40169,2.60441 3.3003,4.34855 l 1.63382,3.17116 3.05059,2.17221 3.05058,2.17221 1.43741,-0.55159 1.43742,-0.55159 1.61739,3.40841 1.6174,3.40841 3.20201,2.44229 3.20201,2.44229 3.55775,-1.2231 3.55775,-1.22309 2.26072,1.83061 2.26072,1.83062 2.18921,0 2.18922,0 0.95522,-0.95522 0.95523,-0.95523 6.78561,3.41518 6.78561,3.41518 2.62975,-1.19819 2.62975,-1.1982 0.36548,1.09643 c 0.20101,0.60304 0.92827,1.8661 1.61613,2.8068 l 1.25065,1.71037 4.01703,-1.38398 4.01703,-1.38398 1.22299,0.40767 1.22299,0.40766 1.87558,3.65776 c 2.1502,4.19332 5.3897,7.24592 9.72697,9.16578 l 3.01777,1.3358 0.9131,2.07808 0.91311,2.07809 3,0.26406 c 1.65,0.14523 4.51851,0.51363 6.37447,0.81866 l 3.37448,0.55461 -2.12448,1.48804 -2.12447,1.48804 -0.002,1.69329 -0.002,1.6933 -4.35307,2.75 -4.35306,2.75 -1.58613,0 c -0.87237,0 -1.8254,-0.38715 -2.11784,-0.86033 l -0.53172,-0.86034 -4.76305,-0.65285 -4.76306,-0.65285 -1.67145,2.2159 -1.67145,2.21589 -4.3428,1.04904 -4.34279,1.04903 0.0953,3.53697 0.0953,3.53696 3.77582,4.96129 c 2.0767,2.72871 4.0588,5.18629 4.40467,5.46129 0.67655,0.53792 1.25209,6 0.63222,6 -0.20524,0 -1.59869,-0.46595 -3.09656,-1.03543 l -2.72339,-1.03544 -2.84171,2.72253 -2.8417,2.72252 0,1.8443 0,1.84429 1.37205,0.52651 c 0.75463,0.28958 2.83353,2.56156 4.61976,5.04885 l 3.24771,4.52235 -0.91827,0.91827 -0.91827,0.91827 -3.8502,-3.94297 -3.8502,-3.94296 -3.60129,1.82242 c -1.98071,1.00233 -4.95921,2.11512 -6.6189,2.47287 l -3.01761,0.65045 -1.78732,-3.02569 -1.78731,-3.02569 -2.99596,1.54927 -2.99596,1.54927 0.5034,1.698 c 0.27687,0.93391 0.78803,2.8936 1.13591,4.35487 l 0.63252,2.65686 -1.08397,2.02541 -1.08397,2.02542 -2.00106,0.63511 -2.00106,0.63512 0,4.77762 0,4.77762 -2.03788,1.84426 -2.03789,1.84426 0.65336,3.06073 c 0.35934,1.6834 1.07324,3.58317 1.58644,4.2217 l 0.93309,1.16097 -0.93918,0.58045 -0.93917,0.58044 -1.63608,-2.49698 -1.63608,-2.49697 -2.39206,1.56733 -2.39205,1.56734 -3.96264,-2.02159 -3.96263,-2.02158 -1.60762,1.7764 -1.60762,1.7764 3.37388,3.68341 3.37387,3.68341 1.50814,0 1.50814,0 0.57561,1.5 0.5756,1.5 2.03139,0 2.03138,0 0,-1 0,-1 1.78439,0 1.78439,0 1.77054,2.99728 1.77053,2.99727 2.93936,-1.52 2.93936,-1.52 -1.21925,-1.95231 -1.21924,-1.95232 0.97496,-0.91024 0.97496,-0.91024 7.75,1.5341 7.75,1.5341 0,1.65118 c 0,0.90815 -0.44204,2.09322 -0.98232,2.6335 -0.54027,0.54027 -1.5937,3.0138 -2.34095,5.49672 l -1.35864,4.51439 1.46293,2.20329 1.46292,2.20328 1.57803,0 1.57803,0 -1.18999,1.18999 -1.18998,1.18998 -3.54394,-1.68998 C 252.52692,295.76049 250.75912,295 250.54763,295 c -0.21148,0 -1.32831,1.52709 -2.48183,3.39354 l -2.09733,3.39354 -3.23423,1.67945 c -1.77883,0.9237 -4.35924,2.31498 -5.73424,3.09172 -1.375,0.77675 -3.21776,1.4189 -4.09501,1.42701 l -1.59501,0.0147 -1.81731,2.0081 -1.8173,2.00809 -1.86131,-1.68447 -1.86132,-1.68446 -1.17637,1.17637 c -0.647,0.647 -1.91663,1.17637 -2.82138,1.17637 l -1.64501,0 -1.72014,1.90072 -1.72013,1.90073 1.06515,0.65829 c 0.58583,0.3621 1.06514,1.08178 1.06514,1.59932 l 0,0.94098 -1.25,-0.0391 c -0.6875,-0.0215 -2.7125,-0.67481 -4.5,-1.45173 z M 79,135.05902 79,134 l 1,0 c 0.55,0 1,0.19844 1,0.44098 0,0.24254 -0.45,0.7191 -1,1.05902 l -1,0.61803 0,-1.05901 z m 1,-3.15418 0,-0.90484 4.666667,0 c 5.586131,0 5.41415,0.52307 -0.416667,1.26726 l -4.25,0.54243 0,-0.90485 z M 93,129 l 1.5,-0.96937 3.309017,-0.0153 L 101.11803,128 100.5,129 99.881966,130 95.690983,129.98469 91.5,129.96937 93,129 z m 10.27083,-0.60417 0.60417,-0.60416 1.3125,0.52522 1.3125,0.52522 -1.91667,0.0789 -1.91666,0.0789 0.60416,-0.60417 z M 109,127.76781 c 0,-0.45682 0.69985,-1.09914 1.55521,-1.42737 l 1.55522,-0.59679 2.19478,0.98489 2.19479,0.98489 -3.75,0.44248 -3.75,0.44249 0,-0.83059 z M 118.5,126 l 0.61803,-1 3.19099,0.0703 3.19098,0.0703 -2,0.85943 c -1.1,0.47269 -2.81406,0.89106 -3.80902,0.92971 L 117.88197,127 118.5,126 z"
     id="path3119"
     style="fill:#ed9a7a" />
  <path
     d="m 237,639.61431 c 0,-0.21213 0.67223,-1.67463 1.49384,-3.25 0.82161,-1.57537 1.49661,-3.4472 1.5,-4.15962 l 0.006,-1.29532 -3.36108,0.63055 -3.36108,0.63054 -0.54504,-2.08423 -0.54504,-2.08424 0.9076,-0.56093 0.9076,-0.56092 -1.75148,-2.40865 c -0.96331,-1.32475 -2.1487,-2.42278 -2.63418,-2.44007 -0.48549,-0.0173 -1.61049,-0.84318 -2.5,-1.83532 l -1.6173,-1.8039 -2.5,0.0356 -2.5,0.0356 -0.98713,-2.23173 c -1.27982,-2.89348 -2.28758,-2.82031 -3.69482,0.26826 l -1.13908,2.5 -1.71704,0 -1.71704,0 -1.24489,-1.5 -1.24489,-1.5 1.19154,-1.43572 1.19155,-1.43572 2.80532,-0.61615 2.80532,-0.61616 2.28816,-2.43564 2.28817,-2.43564 1.08741,0.89975 1.08742,0.89975 6,-0.26155 6,-0.26154 0.32033,-3.24423 0.32034,-3.24423 -1.59556,-1.76308 -1.59557,-1.76308 1.50422,-1.24838 1.50421,-1.24839 -0.87396,-1.645 -0.87396,-1.64499 0.32789,-2.94108 0.3279,-2.94109 -0.96265,-1.79872 -0.96265,-1.79873 1.65172,-2.52084 1.65172,-2.52084 -1.76354,-9.23935 -1.76353,-9.23935 -1.47905,-3 c -0.81347,-1.65 -2.20601,-3.82782 -3.09452,-4.8396 l -1.61549,-1.8396 3.74087,-3.42825 3.74086,-3.42825 2.25849,0.56684 2.25848,0.56685 3.6997,-3.299 3.6997,-3.29899 -0.25675,-3.5 -0.25674,-3.5 -1.17104,-2.11852 -1.17105,-2.11851 0.63499,-0.63499 0.63499,-0.635 2.23812,1.46648 2.23812,1.46647 1.22438,-1.4753 1.22439,-1.47529 1.35549,1.12495 1.35548,1.12496 0.63312,-1.64987 0.63311,-1.64987 -1.62276,-1.79314 -1.62277,-1.79313 0.85207,-4.56092 0.85207,-4.56091 -0.90471,-1.61662 -0.9047,-1.61663 0.56569,-0.91531 0.56569,-0.91531 -2.13215,-3.61373 -2.13216,-3.61374 -3.28305,-1.37174 -3.28306,-1.37175 -0.67898,-2.13928 -0.67898,-2.13928 1.14719,-1.38227 1.14718,-1.38227 -1.81456,-1.05285 c -0.99802,-0.57907 -2.59101,-1.66448 -3.54,-2.41202 l -1.72543,-1.35916 0.95784,-3.3398 0.95784,-3.3398 -1.3428,-2.6917 -1.3428,-2.69171 0.95032,-1.69811 0.95031,-1.69812 -1.65507,-1.82883 -1.65507,-1.82883 0.90115,-0.55693 0.90114,-0.55694 -0.14432,-1.95891 c -0.0794,-1.0774 -0.73156,-2.6665 -1.4493,-3.53133 l -1.30499,-1.57242 -0.8867,0.54801 C 231.39901,457.87143 231,458.923 231,459.90684 l 0,1.7888 -2.81351,0.08 -2.81352,0.08 -0.93648,-3.17782 L 223.5,455.5 l -1.75,0.29384 -1.75,0.29383 0,-1.34383 c 0,-0.73911 0.51249,-1.85633 1.13886,-2.4827 l 1.13887,-1.13887 -2.17089,-4.61836 -2.17088,-4.61836 -2.21798,0.66962 c -1.21989,0.36829 -2.64548,1.06904 -3.16798,1.55722 C 212.0275,444.60058 211.18375,445 210.675,445 l -0.925,0 0.60761,-3.03806 0.60761,-3.03805 -1.49534,-0.57382 -1.49535,-0.57382 -1.2708,1.05467 -1.27081,1.05468 -1.41936,-0.87722 -1.41937,-0.87722 -3.04709,0.52096 c -1.67591,0.28652 -3.67701,0.71875 -4.4469,0.96051 l -1.39979,0.43957 2.03371,2.2239 2.03371,2.2239 -0.63392,1.5 -0.63391,1.5 -1.25,0.1 c -0.6875,0.055 -1.90045,0.1675 -2.69543,0.25 l -1.44544,0.15 -1.31804,2.75 -1.31804,2.75 -3.23857,0.1 -3.23857,0.1 -1.04651,-1.26097 -1.04652,-1.26097 1.04856,-0.64805 L 182,449.88197 182,447 l 0,-2.88197 1.00367,-0.6203 1.00367,-0.6203 -0.63213,-2.68872 C 183.02754,438.70992 181.97236,436.15 181.03035,434.5 l -1.71273,-3 -0.20371,-3.95164 -0.20372,-3.95165 -0.8597,-1.04835 c -0.47284,-0.5766 -0.99393,-2.39836 -1.15797,-4.04836 l -0.29826,-3 0.95287,-1.60413 0.95287,-1.60413 2.77387,-0.51176 2.77386,-0.51176 0.57541,0.93103 0.57541,0.93104 1.86144,-1.68458 1.86144,-1.68458 4.45071,0.66743 4.45071,0.66742 0.55719,1.45201 0.55719,1.45201 2.56277,0 2.56277,0 0.6014,-1.56722 0.6014,-1.56721 -1.13279,-1.13279 L 203,408.6 l 0,-3.3 0,-3.3 4.09362,0 4.09362,0 0.52301,-2 0.52301,-2 0.85769,0 c 0.47173,0 1.54425,-1.32765 2.38337,-2.95034 L 217,392.09932 l 0,-2.56148 0,-2.56148 3.80789,0.60891 3.80789,0.60891 3.13866,-2.64101 3.13866,-2.64101 0.67173,-2.20608 c 0.36945,-1.21334 1.29509,-2.91826 2.05696,-3.7887 l 1.38524,-1.58262 1.79619,0.13232 1.79619,0.13233 2.2003,2.2003 L 243,380 l 1.5,0 1.5,0 0,1.91111 0,1.9111 2.8054,2.36059 c 1.54298,1.29833 3.09046,3.10343 3.43885,4.01133 l 0.63345,1.65074 2.20902,0.32757 2.20902,0.32756 0.79257,1.5 c 0.43591,0.825 1.04968,2.72451 1.36394,4.22114 l 0.57136,2.72113 2.0003,1.07053 2.00029,1.07052 3.5842,-2.7338 3.58419,-2.73379 -2.59629,-1.89127 -2.5963,-1.89127 0,-1.38141 0,-1.38141 1.93426,-1.03519 1.93426,-1.03518 3.36574,0 3.36574,0 0.98487,0.98487 0.98486,0.98486 3.46514,0.44765 c 1.90582,0.2462 3.85511,0.47801 4.33176,0.51513 l 0.86663,0.0675 -0.51339,1.96323 -0.5134,1.96323 1.14676,0.849 c 0.63073,0.46695 2.04677,0.821 3.14677,0.78677 l 2,-0.0622 0.52686,-3.5 0.52686,-3.5 -0.70018,-4 -0.70018,-4 2.67332,-2.22863 2.67332,-2.22863 1.5,0.24726 1.5,0.24725 0,2.1433 0,2.1433 2.42431,2.58808 2.42432,2.58807 5.26667,0 5.26667,0 0.66811,-1.08103 0.66811,-1.08102 2.48656,0.62408 2.48656,0.62409 1.36054,-1.12915 1.36054,-1.12915 1.10549,0.68323 c 0.60802,0.37578 1.52487,1.78628 2.03744,3.13446 l 0.93196,2.45123 3.43798,1.43648 c 1.89089,0.79006 3.74454,1.9325 4.11923,2.53876 l 0.68125,1.10228 -0.98794,0.98794 -0.98793,0.98793 2.87506,3.1478 2.87507,3.14779 0,2.25389 0,2.25388 4.8662,3.84652 c 2.67642,2.11558 6.2707,4.42827 7.98729,5.13931 l 3.12109,1.29279 -0.59364,0.96054 -0.59364,0.96053 2.08184,1.93954 2.08185,1.93953 -1.97176,3.23388 c -1.08446,1.77863 -1.97344,3.96648 -1.97549,4.8619 l -0.004,1.62803 -2.14206,1.42227 -2.14206,1.42227 1.17724,2.1997 1.17725,2.1997 1.38152,0 1.38152,0 3.16133,6.48921 c 1.73874,3.56907 3.5416,6.72423 4.00636,7.01147 0.46477,0.28724 1.14375,1.88234 1.50886,3.54467 l 0.66384,3.02242 2.3741,1.55557 2.37411,1.55558 0.64372,2.02816 0.64371,2.02817 4.14528,-0.55638 4.14528,-0.55637 5.25547,5.51265 c 2.89052,3.03196 6.43143,7.05439 7.86869,8.93875 l 2.61322,3.4261 2.19422,0 2.19422,0 2.56597,2.75 2.56598,2.75 0.66415,3.73785 0.66415,3.73784 1.95696,1.04734 1.95697,1.04734 0,-1.03519 0,-1.03518 1.75,0.0318 c 2.08084,0.0378 4.33297,1.76623 5.85213,4.49124 l 1.10213,1.97696 2.14787,0.31955 2.14787,0.31955 0,1.46184 0,1.46183 1.40975,0.54097 1.40976,0.54098 0.72493,2.67764 c 0.39872,1.4727 0.87348,4.92764 1.05503,7.67764 l 0.33009,5 -1.04233,3.25 -1.04233,3.25 -0.81404,0 -0.81404,0 -0.61861,2.4647 -0.6186,2.46471 -1.7398,-0.61671 c -0.9569,-0.33918 -2.41481,-1.15984 -3.23981,-1.82367 -0.825,-0.66384 -2.43553,-1.43318 -3.57896,-1.70965 l -2.07896,-0.50268 -1.50848,1.11165 -1.50848,1.11165 -0.0882,1.5 c -0.0485,0.825 -0.2756,3.93503 -0.5046,6.91118 l -0.41635,5.41118 -3.64329,3.33882 -3.64328,3.33882 -2.26468,0.0151 c -1.24558,0.008 -3.95818,0.60482 -6.02799,1.32565 l -3.76331,1.3106 -2.79141,2.67434 C 385.6467,561.79654 383.84634,563 383.18118,563 l -1.20937,0 -2.95659,3.25 c -1.62613,1.7875 -2.96978,3.62644 -2.98591,4.08652 -0.0414,1.18186 6.15427,9.92549 8.03608,11.34087 0.86096,0.64757 2.41205,3.05497 3.44686,5.34978 l 1.88148,4.17238 -2.75455,4.90022 -2.75455,4.90023 0.80768,0.10132 c 0.44423,0.0557 2.22519,0.0251 3.9577,-0.068 l 3.15,-0.16932 1.13001,3.42397 1.13001,3.42396 -1.03002,2.70914 C 392.46351,611.9111 392,614.2555 392,615.63085 c 0,1.37535 -0.4582,3.3568 -1.01823,4.40322 l -1.01823,1.90258 -2.64014,-1.00378 c -1.45209,-0.55208 -4.25638,-2.42607 -6.23178,-4.16441 l -3.59162,-3.16063 -0.0652,-2.05391 c -0.0358,-1.12965 -0.62264,-3.08224 -1.30401,-4.33909 l -1.23885,-2.28518 -3.69599,0.67611 -3.69599,0.67612 -0.79969,1.35906 -0.79969,1.35907 -2.28133,0 -2.28133,0 -1.25598,-2.34681 -1.25597,-2.34682 -5.46658,0.30328 -5.46657,0.30327 0.68647,-2.20646 0.68647,-2.20646 -2.07064,1.84865 -2.07065,1.84864 0.93775,2.46646 c 0.5158,1.35654 0.93778,3.11181 0.93778,3.9006 l 0,1.43415 -7.25,-0.1758 c -3.9875,-0.0967 -10.85,0.18896 -15.25,0.6348 l -8,0.8106 -1.25,0.98839 -1.25,0.98839 0,1.77057 0,1.77056 -1.58179,0.60699 C 311.54823,619.72686 309.54979,620 307.97723,620 l -2.8592,0 -0.6451,1.0438 -0.64511,1.04381 1.20853,1.45619 1.20854,1.4562 -3.50581,0 -3.50582,0 -0.52301,2 -0.52301,2 -1.59362,0 -1.59362,0 0,-1.36133 0,-1.36133 -2.51478,0.48073 c -1.38313,0.26441 -2.75968,0.877 -3.05901,1.36133 l -0.54424,0.8806 -3.94099,0 -3.94098,0 0,-2 0,-2 -1,0 -1,0 0,-1.5 0,-1.5 -2,0 -2,0 0,-1 0,-1 1.16667,0 1.16666,0 -0.74991,-0.75 -0.74992,-0.75 -4.59289,-0.0284 -4.5929,-0.0284 -0.40719,-1.22157 -0.40719,-1.22157 -2.35765,0 -2.35765,0 -0.61803,1 -0.61803,1 -2.53461,0 -2.5346,0 -0.52301,-2 -0.52301,-2 -0.95076,0 -0.95076,0 0.51043,1.75 c 0.28074,0.9625 0.78514,3.775 1.1209,6.25 l 0.61046,4.5 -2.8035,3.34419 c -1.54193,1.8393 -4.22101,4.8768 -5.95351,6.75 L 242.2,640 l -2.6,0 c -1.43,0 -2.6,-0.17356 -2.6,-0.38569 z"
     id="path3115"
     style="fill:#ed9a58" />
  <path
     d="m 152.8125,19.78125 -0.75,0.875 c -0.41108,0.469494 -1.94533,4.544198 -3.40625,9.0625 L 146,37.9375 l 0.0625,4.78125 0.0625,4.78125 0.96875,-2.4375 0.96875,-2.4375 -0.40625,-1.125 -0.4375,-1.09375 1.21875,-2.28125 1.21875,-2.25 1.28125,1.53125 1.28125,1.5625 2.125,-1.1875 L 156.5,36.625 154,36.03125 l -2.5,-0.625 -0.3125,-4.125 L 150.90625,27.125 153,26 155.125,24.875 153.9375,23.4375 152.75,22 154.625,21.96875 156.5,21.9375 154.65625,20.875 z M 163.96875,33.25 163.40625,34.125 162.875,35 l -3.1875,0.15625 -3.1875,0.15625 2.5,0.40625 2.5,0.40625 2.5,5.53125 c 1.375,3.045634 2.3875,5.942888 2.25,6.4375 L 166,49 l 1,0 1,0 0,1.09375 c 0,0.608104 1.13997,2.471567 2.53125,4.125 l 2.53125,3 -1.1875,1.40625 -1.15625,1.40625 1.625,-0.625 1.65625,-0.625 0,2.03125 0,2.03125 -1.75,0.46875 -1.75,0.46875 1.75,0.09375 1.75,0.125 0,0.875 c 0,0.482656 -0.675,1.440311 -1.5,2.125 l -1.5,1.25 0,1.375 0,1.375 2.5,0 2.46875,0 1.25,-2 c 0.68696,-1.1 1.61355,-2 2.03125,-2 l 0.75,0 0,2.5 0,2.5 -0.84375,0 c -0.46584,0 -1.8145,0.846826 -3,1.875 L 174,75.75 168.9375,75.84375 C 163.63331,75.96325 162,76.493177 162,78.0625 l 0,0.9375 1.75,0.03125 1.75,0.03125 -2,1.125 c -2.12249,1.20359 -3.4748,2.792978 -3.5,4.125 l 0,0.8125 1,-0.625 1,-0.625 0.5625,1.40625 0.53125,1.40625 4.9375,-0.09375 C 170.7509,86.53935 172.996,86.275 173,86 c 0.004,-0.275 1.23788,-0.56933 2.75,-0.65625 l 2.75,-0.15625 -2.53125,2.15625 c -1.39284,1.186922 -3.11795,3.3375 -3.84375,4.78125 l -1.34375,2.625 1.1875,2.21875 1.1875,2.21875 2.28125,-0.59375 2.25,-0.5625 1.15625,2.53125 C 179.47726,101.9529 180,104.00718 180,105.125 l 0,2.03125 -3.125,-0.6875 -3.125,-0.6875 -0.78125,1.28125 -0.78125,1.25 0.75,1.59375 c 0.41031,0.87422 1.39405,2.95149 2.1875,4.59375 l 1.4375,2.96875 8.40625,1.1875 8.40625,1.21875 2.40625,1.28125 2.40625,1.28125 2.4375,4.78125 2.40625,4.78125 0.96875,0 0.96875,0 1.96875,3.84375 1.9375,3.84375 2.59375,1.6875 2.59375,1.6875 1.59375,-0.28125 1.625,-0.28125 2.09375,3.6875 c 1.16224,2.02391 3.26612,4.54274 4.65625,5.625 l 2.53125,1.96875 3.5625,-1.21875 3.5625,-1.21875 2.28125,1.8125 2.25,1.84375 2.1875,0 2.1875,0 1,-1 1,-1 6.90625,3.53125 6.9375,3.5625 0.15625,-0.15625 c -0.003,0.0189 0.006,0.0433 0.0312,0.0312 l 1.1875,-0.5625 2.15625,-1.09375 1.96875,-0.53125 1.1875,2.59375 1.1875,2.59375 2.59375,-0.625 c 1.42899,-0.3406 3.2858,-0.97897 4.125,-1.40625 l 1.53125,-0.78125 1.71875,0.96875 1.71875,0.96875 1.9375,3.78125 1.90625,3.75 4.0625,2.6875 c 2.23087,1.47632 4.96812,2.83298 6.0625,3 1.09437,0.16701 2.30666,0.61916 2.6875,1 1.05577,1.05577 2.63276,0.78954 4.75,-0.8125 l 1.9375,-1.46875 1.40625,1.15625 1.40625,1.1875 0.84375,-1.40625 0.875,-1.375 -0.53125,-0.875 -0.5625,-0.875 2.28125,-2.40625 2.28125,-2.4375 1.625,0 c 0.89413,0 2.0953,0.47036 2.65625,1.03125 l 1,1 4.4375,-2.9375 4.4375,-2.96875 1.59375,-2.8125 1.5625,-2.8125 4.40625,-0.0625 4.40625,-0.0937 2.5,1.34375 c 1.38606,0.7234 3.00212,1.3095 3.59375,1.3125 0.59162,0.003 2.14575,1.125 3.4375,2.5 l 2.34375,2.5 4.1875,0 4.15625,0 3.15625,1.5625 c 1.7345,0.86528 3.15625,1.94803 3.15625,2.40625 l 0,0.84375 1.875,-0.5 1.90625,-0.5 0.65625,1.09375 0.6875,1.09375 3.25,0 3.25,0 2.875,-3 2.875,-3 1.8125,0.5625 1.78125,0.5625 2.53125,-2.8125 2.5,-2.8125 1.4375,1.875 1.46875,1.875 2.5,-2.875 c 1.38704,-1.57738 2.5451,-3.39025 2.5625,-4.03125 0.0171,-0.63088 1.5019,-3.91878 3.3125,-7.34375 0.46176,-0.014 0.16206,-0.54994 0.78635,-0.62402 1.0153,-0.12048 2.06875,0.48506 2.58533,0.72043 l 3.84508,0.70146 5.79787,0.85904 1.04787,-0.65691 1.6875,-1.53125 1.65625,-1.5 3.8125,0.78125 3.8125,0.8125 1.96875,2.625 1.96875,2.59375 -1.875,3.25 -1.875,3.25 1.25,0.4375 1.25,0.4375 0,2.84375 c 0,1.55918 0.27697,3.59305 0.625,4.5 l 0.625,1.625 1.09375,-1.0625 1.0625,-1.0625 5,0 5,0 -1.15625,-1.125 -1.125,-1.15625 1.53125,-2.3125 1.53125,-2.3125 -0.6875,-3.0625 L 439.8437,156 l -0.9375,0 -0.90625,0 0,-3.53125 0,-3.5625 -2,-3.90625 -2,-3.90625 0,-2.625 0,-2.59375 -1.1875,-2.1875 -1.1875,-2.1875 -0.0625,-4.40625 -0.0625,-4.4375 -5,-1.1875 c -2.75,-0.65562 -6.26419,-1.71804 -7.8125,-2.34375 -1.5483,-0.62571 -4.0233,-1.17535 -5.5,-1.21875 l -2.6875,-0.0625 1.5,-0.5625 c 0.825,-0.31405 1.84592,-1.08247 2.25,-1.6875 l 0.71875,-1.09375 0.0312,1.28125 0,1.28125 2.9375,-1.53125 2.96875,-1.53125 2.96875,0 3,0 -0.0937,-2.9375 -0.0937,-2.9375 -5.53125,-4.8125 c -3.05323,-2.64596 -6.80511,-5.33921 -8.34375,-6 L 410,96.09375 408.84375,93.5625 c -1.22047,-2.678654 -2.30921,-3.217107 -3.3125,-1.59375 l -0.625,0.96875 1.625,2.46875 1.625,2.46875 -1.15625,2.15625 -1.15625,2.125 0.5625,0.59375 0.59375,0.5625 2.125,-1.90625 2.15625,-1.90625 -0.75,2.375 -0.75,2.375 1.375,-0.46875 1.34375,-0.4375 0.3125,-2.1875 L 413.125,99 414,99 c 0.47429,0 1.80004,1.30885 2.9375,2.90625 l 2.0625,2.90625 0,2.0625 0,2.0625 -1.5,-0.5625 -1.5,-0.59375 0,-1.46875 0,-1.46875 -1.25,0.4375 -1.25,0.40625 0.3125,3.21875 0.34375,3.21875 -2.59375,2.40625 c -2.96107,2.74423 -3.2447,2.4423 -0.96875,-1.03125 l 1.59375,-2.46875 -3.03125,-2.5625 -3.0625,-2.5625 L 405.5,104 l -0.625,-1.9375 1.15625,-2.15625 1.15625,-2.15625 -2.03125,-2.03125 -2.03125,-2.03125 -4.34375,1.65625 C 396.39099,96.256599 393.67476,97 392.75,97 l -1.6875,0 -1.125,-2.09375 C 389.32276,93.757589 387.27686,91.105128 385.375,89 l -3.46875,-3.84375 1.0625,-0.625 L 384,83.875 l 0,1.5625 0,1.5625 2.5,0 2.5,0 0,-1 0,-1 -1.6875,0 -1.6875,0 2.9375,-3.09375 c 1.6154,-1.707145 3.84035,-3.457695 4.9375,-3.875 l 2,-0.75 2.78125,0.96875 2.78125,0.96875 L 400,80.5 l -1.0625,1.28125 1.625,0.59375 C 401.44653,82.714231 402.42832,83 402.75,83 l 0.59375,0 -0.625,-0.59375 -0.59375,-0.625 L 403,79.5 403.875,77.21875 401.90625,75.125 399.9375,73 l -1.5,0 -1.46875,0 -1.15625,-2.53125 -1.15625,-2.5 2.75,-2.875 2.78125,-2.875 -1.125,-2.125 -1.125,-2.09375 -5.375,0.625 -5.34375,0.625 -1.25,-2.3125 -1.25,-2.34375 1.125,-0.375 1.15625,-0.375 0,-1.5 0,-1.46875 -2.25,0.625 c -1.2375,0.346631 -3.2625,1.11038 -4.5,1.71875 l -2.25,1.125 0,2.03125 0,2 1.59375,-1.9375 1.5625,-1.9375 -0.5625,1.84375 C 380.27385,57.351234 380,58.363734 380,58.59375 380,58.823767 379.35504,59 378.5625,59 c -0.79254,0 -1.68023,0.376905 -1.96875,0.84375 l -0.53125,0.84375 2.96875,0.09375 2.9375,0.09375 1.3125,-1.875 1.3125,-1.875 1.21875,1.9375 1.21875,1.9375 1.90625,0 1.9375,0 0.65625,2.125 0.6875,2.125 -1.375,0.875 c -2.14947,1.361965 -2.83539,1.046883 -3.875,-1.6875 L 386,61.875 l -1.15625,0.71875 -1.1875,0.71875 0.65625,-1.65625 0.625,-1.65625 -1.0625,0 -1.0625,0 -0.53125,1.96875 -0.5,1.96875 -1.8125,-0.96875 -1.8125,-0.96875 -1.625,0.625 -1.625,0.625 0.40625,1.125 0.40625,1.125 1.5625,-0.125 1.5625,-0.125 0.46875,1.8125 0.46875,1.8125 L 378.25,69.46875 376.71875,70.0625 376.1875,69.53125 375.65625,69 l 1.1875,0 1.15625,0 0,-1 0,-1 -1.40625,0 -1.375,0 -0.625,1.59375 L 374,70.1875 l 0.5625,0.90625 C 374.87175,71.594117 375.75806,72 376.53125,72 l 1.40625,0 1.0625,2 1.0625,2 -2.46875,0 -2.46875,0 -0.625,1.03125 -0.625,1 L 373,77.5 372.15625,76.96875 371.5,79 l -0.625,2 -2.5625,-0.4375 c -1.39335,-0.252663 -3.61393,-1.164013 -4.9375,-2.03125 l -2.40625,-1.59375 -8.1875,-1.03125 -8.21875,-1.03125 -1.21875,1.65625 -1.21875,1.65625 0.0937,0.1875 L 341.5,79 l -3.09375,3.65625 c -1.96949,1.564364 -5.00963,4.231965 -6.75,5.9375 L 328.5,91.6875 319.21875,94.84375 C 314.11867,96.575715 309.03597,98 307.90625,98 l -2.0625,0 -3,3 c -1.65,1.65 -3.37312,3 -3.84375,3 -0.47062,0 -1.15747,0.88952 -1.5,1.96875 l -0.625,1.96875 1.0625,1.96875 c 0.58047,1.08461 1.0625,2.44509 1.0625,3.03125 l 0,1.0625 -3.8125,0 -3.78125,0 -0.96875,-0.96875 -0.96875,-0.96875 -7.0625,-1.1875 -7.0625,-1.21875 -1.65625,0.625 -1.625,0.625 -3.8125,-1.09375 -2.71875,-1.3125 -0.34375,-1.8125 -0.34375,-1.78125 1.1875,-1.46875 L 267.25,102 l 2.28125,0 2.3125,0 0.3125,-0.78125 c 0.18333,-0.43287 2.25625,-2.328312 4.59375,-4.1875 l 4.25,-3.375 0,-6.625 0,-6.625 1.1875,-1.1875 1.1875,-1.1875 -0.6875,-0.6875 -0.6875,-0.6875 -2.375,1.28125 -2.375,1.28125 -2.15625,-0.6875 -2.15625,-0.6875 -3.5,3.09375 -3.5,3.0625 -1.9375,0 -1.9375,0 -3.28125,-2.78125 c -3.26708,-2.757788 -9.46332,-6.1408 -13.28125,-7.25 l -2,-0.5625 -2.5,1.28125 -2.5,1.3125 -0.90625,-3.03125 -0.90625,-3 -2.34375,-0.59375 -2.375,-0.59375 -4.75,1.5625 -4.71875,1.5625 -0.8125,-0.84375 -0.84375,-0.8125 3,-1.03125 3,-1.0625 L 227.875,66.25 c 0.56105,-1.04833 1.29332,-4.139066 1.65625,-6.875 l 0.6875,-4.96875 -2.375,-1.125 L 225.5,52.125 227.3125,52.0625 229.125,52 228.46875,49.75 C 227.52427,46.585361 225.1276,43 223.96875,43 L 223,43 l 0,1.5 0,1.5 -1.34375,0 -1.34375,0 -1.6875,-1.84375 -1.65625,-1.84375 -4,-1.1875 L 209,39.90625 l 0,-1.5 0,-1.53125 -2.75,1.90625 c -1.5125,1.04727 -3.37528,2.263344 -4.15625,2.71875 l -1.4375,0.8125 0.65625,-1.65625 0.625,-1.65625 -1.40625,0 c -0.77528,0 -1.69133,0.45 -2.03125,1 l -0.625,1 -2.4375,0 -2.4375,0 0,-1.375 0,-1.375 -2.75,-1.09375 C 185.73952,35.369725 178.94156,34.132726 171.21875,33.6875 z M 157.625,46 c -1.34728,0 -3.16127,0.259906 -4.03125,0.59375 l -1.59375,0.625 0,1.53125 0,1.53125 1.75,1.3125 c 0.9625,0.730645 2.5256,1.35751 3.46875,1.375 L 158.9375,53 l 1.09375,-2.09375 1.125,-2.0625 -0.5625,-1.4375 L 160.0625,46 z m -9.3125,3.53125 -1.09375,2.0625 -1.125,2.09375 1.5,2.15625 c 1.45965,2.083932 3.49916,2.938339 3.34375,1.40625 -0.0418,-0.4125 -0.65076,-2.330172 -1.34375,-4.25 z M 374.125,58 c -1.48761,0 -1.85953,0.997285 -2.46875,6.5 l -0.5625,5 1.1875,-4.5 c 0.6634,-2.475 1.58629,-5.0625 2.03125,-5.75 L 375.125,58 z m -208,5.15625 -2.09375,0.53125 c -1.14119,0.298429 -2.29486,0.953888 -2.59375,1.4375 L 160.875,66 l 0.65625,1.0625 0.65625,1.0625 1.65625,-0.34375 1.65625,-0.3125 0.3125,-2.15625 z M 279.3125,65 l -1.15625,2.5625 c -1.58924,3.487987 -1.46998,4.113697 0.84375,4.71875 l 2,0.53125 0,1.53125 0,1.53125 5,-0.1875 L 290.96875,75.5 291,74.6875 c 0.004,-0.439813 -0.69694,-2.105373 -1.53125,-3.71875 l -1.5,-2.9375 -2.9375,-1.5 C 283.41788,65.69694 281.48278,65 280.71875,65 z M 152.75,71 154,72.5 c 0.68469,0.825 1.41735,1.5 1.625,1.5 0.20766,0 0.375,-0.675 0.375,-1.5 l 0,-1.5 -1.625,0 z m 222.65625,10 c 0.21616,0 0.65216,0.675 0.96875,1.5 l 0.5625,1.5 -0.96875,0 -0.96875,0 0,-1.5 c 0,-0.825 0.1901,-1.5 0.40625,-1.5 z m 4.03125,3 c 0.24254,0 0.72258,0.45 1.0625,1 l 0.625,1 -1.0625,0 -1.0625,0 0,-1 c 0,-0.55 0.19496,-1 0.4375,-1 z"
     id="path3113"
     style="fill:#cfae80;fill-opacity:1" />
  <path
     d="M 127.1507,499.51016 121.80141,497 l -2.70071,0 -2.7007,0 -1.15762,-1.15762 -1.15762,-1.15762 -1.36617,1.13383 -1.36618,1.13382 -1.1762,-1.1762 L 109,494.6 l 0,1.2 0,1.2 -1.53138,0 -1.53139,0 -0.5756,-1.5 -0.57561,-1.5 -1.96727,0 -1.96727,0 -1.675742,-3.98983 L 97.5,486.02034 96,485.89169 c -2.746674,-0.23558 -4.219668,0.23505 -6.038139,1.92923 L 88.159597,489.5 84.829798,489.32697 c -1.831389,-0.0952 -3.442298,-0.26392 -3.579798,-0.375 -0.1375,-0.11109 -0.8125,-0.25822 -1.5,-0.32697 L 78.5,488.5 78.165128,485.5588 c -0.18418,-1.61766 -0.04411,-4.88016 0.311273,-7.25 L 79.122546,474 l 3.287037,0 3.287037,0 1.537527,-3.91416 1.537527,-3.91417 -1.043455,-1.04345 -1.043456,-1.04346 1.243709,-1.49857 1.243708,-1.49858 -0.644611,-1.043 -0.644611,-1.043 3.308521,-1.97006 3.308521,-1.97005 2,-3.02788 2,-3.02787 2.90561,-0.003 2.90561,-0.003 3.4334,-2.61878 3.4334,-2.61878 -0.61008,-3.25201 -0.61008,-3.252 3.14607,-0.62922 C 114.83427,436.28315 116.80755,436 117.489,436 l 1.239,0 2.802,4.04329 2.802,4.04329 1.084,-0.44736 c 0.5962,-0.24604 1.8715,-0.76367 2.834,-1.15027 l 1.75,-0.70293 0,2.01387 0,2.01387 5.01467,4.19852 5.01467,4.19852 2.31723,-1.51831 2.31723,-1.51831 0.9181,0.66291 0.9181,0.66291 0.30393,6 0.30392,6 1.44608,1.11024 1.44607,1.11025 0,1.67494 c 0,0.92121 -0.71379,2.76431 -1.5862,4.09578 l -1.58619,2.42084 0.68416,1.10699 0.68415,1.10699 -1.34796,1.68698 c -2.41877,3.02711 -3.84707,6.11648 -3.89439,8.42342 l -0.0464,2.26357 -3.22266,6 -3.22266,6 -1.98091,0.26016 -1.98091,0.26016 -5.3493,-2.51016 z"
     id="path3111"
     style="fill:#f6ad32" />
  <path
     d="m 134.46795,363.94814 -0.67025,-1.08449 -1.32338,0.50783 -1.32338,0.50783 -1.57547,-2.40447 -1.57547,-2.40447 0,-2.93715 0,-2.93714 -3.75,-1.9492 -3.75,-1.9492 -0.0138,-1.549 -0.0138,-1.549 -2.67872,-2.67873 -2.67873,-2.67873 -0.30748,-3.17111 L 114.5,334.5 l -2,-0.0768 c -1.1,-0.0423 -3.37306,-0.61761 -5.05125,-1.27854 l -3.05125,-1.20169 -1.69875,-2.87575 -1.69875,-2.87575 0,-2.06712 0,-2.06712 -3.25,-0.83769 -3.25,-0.8377 -0.304602,-2.07682 -0.304601,-2.07681 -2.918733,-0.58375 -2.918734,-0.58374 -0.635073,-2.53034 L 86.783184,310 l -1.026921,0 c -0.564807,0 -2.027755,-1.0125 -3.250997,-2.25 -1.223241,-1.2375 -4.13394,-3.375 -6.46822,-4.75 l -4.244145,-2.5 -3.892849,-4.63448 -3.89285,-4.63448 1.489608,-4.222 1.489608,-4.222 -0.530751,-0.85877 C 66.163754,281.45594 62.34181,278.29763 57.962458,274.9098 53.583106,271.52197 50,268.37045 50,267.90644 l 0,-0.84367 1.421859,0.54562 1.42186,0.54562 2.059688,-1.10232 2.059689,-1.10231 5.179861,-0.36294 5.179862,-0.36295 1.814908,-2.36175 1.814909,-2.36174 -0.278053,-1 C 70.521653,258.95 68.96705,257.825 67.219907,257 63.479219,255.23365 63.339404,254.6606 66,252 l 2,-2 1.976947,0 1.976947,0 1.638063,-2.5 1.638063,-2.5 1.38499,0 1.38499,0 0,-0.92857 c 0,-0.51072 0.668103,-1.59668 1.484672,-2.41325 l 1.484673,-1.48467 7.765327,-0.71859 7.765328,-0.7186 3.183819,-2.7795 3.183821,-2.7795 3.56618,-1.28955 3.56618,-1.28955 0.15844,-1.54911 c 0.0872,-0.85201 0.0924,-2.33661 0.0118,-3.29911 l -0.14665,-1.75 2.23821,0.0385 2.23821,0.0385 2.01338,3.20036 2.01339,3.20036 1.98661,0.30006 c 1.09264,0.16503 2.94535,0.50261 4.11713,0.75018 l 2.13051,0.45012 0.51625,1.97417 0.51626,1.97417 L 126.5,237 l -1.29353,1.07354 0.48666,1.861 0.48666,1.86099 -1.15784,2.16345 -1.15784,2.16345 3.06794,1.15802 c 4.16675,1.57278 3.99313,2.4313 -1.21649,6.01542 l -1.78444,1.22767 1.44228,1.97244 1.44229,1.97244 3.41315,-1.23421 C 132.10608,256.5554 134.64077,256 135.86149,256 l 2.2195,0 2.89237,-2.13843 2.89238,-2.13842 2.81713,0.55573 2.81713,0.55574 2.95643,-2.36948 2.95644,-2.36948 -1.66335,-0.63828 -1.66334,-0.63829 0.52279,-3.15954 c 0.28753,-1.73775 0.73712,-4.21351 0.99908,-5.50169 l 0.47631,-2.34215 -3.34243,-3.15785 c -1.83834,-1.73682 -3.6624,-3.99542 -4.05348,-5.01911 l -0.71106,-1.86124 2.48079,0.62264 2.48078,0.62264 1.57744,-2.40747 1.57743,-2.40746 3.20308,-0.44391 c 1.7617,-0.24414 3.83493,-0.62841 4.60718,-0.85393 l 1.40408,-0.41002 1.09592,4.95934 1.09591,4.95933 3.5,0.71645 3.5,0.71645 3.07829,-1.90122 3.0783,-1.90123 1.18271,-2.59576 1.18271,-2.59577 1.73899,0.32939 1.739,0.3294 0.31325,3.24041 0.31326,3.2404 -3.23471,2.95446 -3.23472,2.95445 -0.7383,-0.45629 c -0.40606,-0.25097 -1.4539,-0.18169 -2.32854,0.15393 L 174,236.21398 l 0,1.35783 0,1.35782 2.22936,1.19312 c 2.58182,1.38175 4.77064,3.42143 4.77064,4.44558 0,1.18389 -3.38327,3.36597 -5.27144,3.39987 l -1.77144,0.0318 -1.13907,2.5 -1.13908,2.5 -3.16517,0 -3.16517,0 -2.09334,2.25 -2.09333,2.25 -0.64732,3.51041 -0.64733,3.5104 1.07812,2.83567 c 0.59297,1.55962 2.66339,4.77028 4.60093,7.13479 l 3.52281,4.29912 3.66792,0.68811 3.66792,0.68811 1.31648,-1.83331 c 0.72407,-1.00831 2.03841,-2.69073 2.92077,-3.73871 l 1.60429,-1.90541 0.92642,1.65541 0.92641,1.65541 5.48169,0 5.4817,0 0.51872,-1.35175 0.51871,-1.35175 2.4499,0.46833 2.4499,0.46832 0,2.1923 0,2.19229 -1.35839,1.85771 -1.35838,1.8577 0.4832,4.28697 0.4832,4.28697 -0.78845,1.79645 c -0.43364,0.98805 -0.85942,2.02146 -0.94617,2.29646 -0.0867,0.275 -0.75747,1.73119 -1.49049,3.23598 l -1.33277,2.73597 -2.34588,1.53708 -2.34587,1.53708 0,1.58393 0,1.58394 -1.58179,-0.60699 C 187.54823,306.27314 186.42323,306 185.91821,306 L 185,306 l 0,-1.46482 0,-1.46481 -1.93426,-1.03519 c -2.70018,-1.44509 -3.42818,-1.32452 -6.47539,1.07241 l -2.67937,2.1076 1.62441,2.47917 1.62442,2.47917 -0.52968,0.52967 c -0.29132,0.29133 -3.13978,0.73031 -6.3299,0.97552 l -5.80023,0.44583 -3.49042,3.44481 -3.49041,3.44481 1.14736,1.74291 c 1.183,1.79707 1.61623,1.86489 4.56957,0.71536 l 1.7361,-0.67575 1.09476,2.85165 1.09477,2.85166 -1.73834,3.25 -1.73833,3.25 -3.72009,0 -3.72008,0 -1.23411,1.48701 -1.23411,1.48702 0.55286,2.26298 0.55287,2.26299 -1.4412,1.94113 c -0.79266,1.06762 -1.4412,2.50694 -1.4412,3.19848 0,0.69154 -1.13668,2.48385 -2.52596,3.98291 l -2.52597,2.72555 -1.12075,-1.12075 -1.12076,-1.12076 -4.43016,3.63017 -4.43015,3.63018 0.60756,3.23856 0.60756,3.23857 -0.96159,0.59429 -0.96158,0.59429 -0.67025,-1.08448 z"
     id="path3109"
     style="fill:#d08a70" />
  <path
     d="m 168,467.79008 c 0,-0.1668 0.4013,-1.70255 0.89179,-3.41276 l 0.89178,-3.10947 -0.83915,-1.35778 -0.83915,-1.35778 -2.18819,-0.0261 -2.18819,-0.0261 -0.86504,-1.5 c -0.47578,-0.825 -1.31053,-2.75561 -1.855,-4.29024 l -0.98995,-2.79024 -2.03928,1.09139 -2.03928,1.09139 0.27983,2.69885 0.27983,2.69885 -1.15184,0 c -0.63351,0 -2.72598,-1.43243 -4.64992,-3.18318 -1.92395,-1.75075 -4.10562,-3.30766 -4.84816,-3.45981 l -1.35008,-0.27662 -2.27345,1.25754 -2.27345,1.25754 -4.47655,-3.6682 -4.47655,-3.66819 0,-2.49617 0,-2.49617 -1.75,0.50318 c -0.9625,0.27674 -2.425,0.77218 -3.25,1.10096 l -1.5,0.59779 -2.87872,-4.07318 -2.87871,-4.07318 0.94325,-6.96825 0.94326,-6.96825 -2.34868,-3.18346 -2.34869,-3.18347 -1.87167,-0.69237 -1.87167,-0.69238 -0.67364,-3.06706 -0.67364,-3.06707 -1.91768,0 -1.91767,0 -1.34038,-3.25 -1.34038,-3.25 1.33751,-0.32332 c 1.56226,-0.37766 1.65526,-1.12599 0.38873,-3.12804 l -0.91814,-1.45135 3.02294,-1.83837 3.02294,-1.83836 -1.29415,-1.55935 -1.29415,-1.55936 -0.2005,-3.90092 -0.20051,-3.90093 0.82558,0 0.82558,0 0.69307,-6.47173 0.69306,-6.47172 1.39886,-1.16095 1.39886,-1.16096 L 113,364.5 l -1.02466,-1.23464 1.38558,-1.14993 1.38558,-1.14994 1.63538,0.62756 1.63538,0.62755 0.63131,2.51533 0.63131,2.51534 0.90975,-1.62564 0.90975,-1.62563 1.84332,0 1.84332,0 0.59215,1.54312 0.59216,1.54313 2.26483,-1.24503 c 1.24566,-0.68477 2.9287,-1.35423 3.74008,-1.4877 l 1.47524,-0.24267 0.69854,1.13027 0.69855,1.13028 1.59555,-1.32419 1.59554,-1.32419 -0.58875,-3.13835 -0.58876,-3.13836 3.93241,-3.16017 3.93241,-3.16017 1.12035,1.12035 1.12035,1.12035 2.98889,-2.93334 2.98888,-2.93333 0.0278,-1.31574 c 0.0153,-0.72366 0.57933,-2.29866 1.25344,-3.5 l 1.22567,-2.18426 0.0243,-3 0.0243,-3 2.69833,-0.31144 2.69834,-0.31143 2.01933,3.95821 2.01933,3.95822 -3.02989,2.35322 -3.0299,2.35322 -0.18777,5 -0.18777,5 0.79179,2.16935 0.79179,2.16935 -1.84373,0.58517 -1.84373,0.58518 -0.10548,3.72112 -0.10548,3.72113 1.78295,2.52435 1.78295,2.52435 -0.84331,2.25 c -1.69363,4.51874 0.0517,2.0904 2.63525,-3.66646 l 2.65514,-5.91645 2.44692,-0.61414 2.44692,-0.61414 0.91616,0.56622 0.91616,0.56622 4.23933,-4.11414 c 2.33163,-2.26277 5.50273,-4.76746 7.04688,-5.56597 l 2.80755,-1.45184 1.92523,1.03035 c 1.05887,0.56669 3.06398,1.03035 4.45578,1.03035 l 2.53056,0 1.11735,2.08779 1.11735,2.08778 2.22876,-0.55938 2.22877,-0.55939 3.56007,0.98299 3.56008,0.98298 0.61799,3.73862 c 0.33989,2.05623 0.62294,4.31026 0.62899,5.00893 l 0.011,1.27033 -4.09691,-2.09009 c -2.25329,-1.14954 -4.29856,-1.88843 -4.54502,-1.64196 -0.24647,0.24647 0.0635,2.4801 0.68889,4.96362 l 1.13702,4.5155 -1.04519,1.95294 -1.04518,1.95295 0.93828,0.93828 0.93827,0.93827 -2.23508,3.19764 c -2.59248,3.70896 -3.37115,3.9542 -4.20576,1.32458 l -0.60545,-1.90762 -1.43437,-0.55041 -1.43436,-0.55042 -1.22975,4.10452 -1.22974,4.10453 -1.82587,0.47747 -1.82587,0.47748 0.55785,1.75761 0.55784,1.75761 -1.5298,0.58704 -1.5298,0.58704 0,1.53139 0,1.53138 -4.34501,0 -4.34501,0 -1.74895,-1.93256 -1.74894,-1.93256 -1.40605,0.53955 -1.40604,0.53955 0,2.41776 0,2.41776 -2.58128,0.9814 -2.58128,0.98141 0.58063,1.24384 c 0.31936,0.68412 0.85522,2.01911 1.19081,2.96666 l 0.61016,1.72281 4.64048,1.3051 4.64048,1.30511 0.33849,2.97208 c 0.18616,1.63465 0.72845,3.44385 1.20509,4.02045 l 0.86661,1.04835 0.20372,3.95165 0.20371,3.95164 1.71273,3 c 0.94201,1.65 1.99719,4.20992 2.34486,5.68871 l 0.63213,2.68872 -1.00367,0.6203 -1.00367,0.6203 0,2.74099 0,2.74098 -1.04238,1.04238 -1.04238,1.04238 1.53038,1.27011 1.53038,1.2701 -2.16416,3.13751 c -1.19029,1.72564 -2.29902,3.31415 -2.46384,3.53002 -0.16482,0.21588 -0.95416,-0.15068 -1.7541,-0.81457 l -1.45442,-1.20706 -0.93461,1.81456 c -0.51404,0.99802 -0.78568,2.26457 -0.60366,2.81457 l 0.33096,1 -2.46608,1.79668 C 169.10974,467.28486 168,467.95689 168,467.79008 z M 155.23426,385 l 2.36574,0 1.11806,-1.11806 1.11806,-1.11806 -1.66806,-3.35733 -1.66806,-3.35734 -1.64301,-0.0246 -1.64301,-0.0246 -0.54764,-1.42712 -0.54763,-1.42711 1.19038,-3.15369 1.19038,-3.15369 -1.87623,-1.37194 -1.87624,-1.37194 -4.75401,2.40904 -4.75401,2.40904 -0.7103,3.78621 -0.71029,3.78621 2.94079,2.5075 c 1.61744,1.37912 3.72931,3.73621 4.69303,5.23797 l 1.75223,2.73048 1.83204,-0.98048 C 152.0441,385.44122 153.9331,385 155.23426,385 z"
     id="path3107"
     style="fill:#e18532" />
  <path
     d="M 261.57143,400.42857 260,398.85714 l 0,-2.27358 0,-2.27358 -1.82874,-1.65499 -1.82874,-1.65499 -1.67126,0 -1.67126,0 0,-1.31194 0,-1.31194 -3,-2.218 -3,-2.21799 0,-1.99482 0,-1.99481 -2.68879,-1.02228 -2.68879,-1.02227 -1.25382,-1.79009 -1.25382,-1.79008 -2.03702,0.15007 c -1.12036,0.0825 -2.34618,0.45924 -2.72406,0.83711 C 233.97583,375.69083 233.29167,376 232.83333,376 L 232,376 l 0,-1.94098 0,-1.94099 1.06514,-0.65829 1.06515,-0.65829 -1.72013,-1.90073 -1.72014,-1.90072 -1.87639,0 -1.8764,0 -0.5756,1.5 -0.57561,1.5 -1.42819,0 -1.4282,0 1.24975,-2.25 c 0.68736,-1.2375 1.2657,-2.55 1.28518,-2.91667 0.0195,-0.36666 0.36475,-0.99597 0.76723,-1.39845 l 0.73179,-0.7318 -0.56159,-2.23756 -0.5616,-2.23757 1.65148,-1.36398 c 0.90832,-0.75018 2.54934,-2.18158 3.64672,-3.18088 l 1.99523,-1.81691 -1.22,-1.47002 -1.22,-1.47001 -1.69363,0.28693 -1.69364,0.28692 -0.40327,-0.9863 -0.40328,-0.98631 2,-0.32224 c 1.1,-0.17724 2.63775,-0.53565 3.41722,-0.79648 l 1.41721,-0.47424 -1.16721,-1.16721 C 231.52525,344.12525 231,343.24 231,342.8 l 0,-0.8 3.94098,0 3.94099,0 0.6451,-1.0438 0.64511,-1.04381 -1.23647,-1.48986 -1.23648,-1.48986 -0.2358,-2.9976 -0.23581,-2.9976 1.76222,0.55931 1.76223,0.55931 0.54651,-2.08985 0.5465,-2.08985 -3.17254,-1.85289 c -1.7449,-1.01909 -4.8376,-3.12878 -6.87267,-4.6882 l -3.70014,-2.8353 -0.87143,-2.4647 -0.87143,-2.4647 2.57156,-2.15584 2.57157,-2.15584 3.1809,-0.69374 3.1809,-0.69374 1.19155,-1.43572 C 239.7087,305.64607 240.8172,305 241.51669,305 l 1.2718,0 2.92668,-2.75 c 1.60968,-1.5125 3.38891,-3.58441 3.95384,-4.60424 l 1.02716,-1.85424 3.24217,1.6766 3.24217,1.67659 1.65975,-0.7257 c 1.5396,-0.67317 2.21703,-0.86251 4.53218,-1.2667 L 264.24489,297 l -1.2052,-1.45218 -1.2052,-1.45218 1.83275,-2.51639 1.83276,-2.5164 1.66659,-0.0314 1.6666,-0.0314 1.943,2.66731 1.94299,2.66731 3.83715,-0.14426 3.83714,-0.14425 1.7316,1.56708 1.7316,1.56708 2.07167,-0.65752 2.07166,-0.65753 0,-3.27762 0,-3.27762 1.82874,-1.65499 1.82874,-1.65499 1.55625,0 1.55625,0 1.64474,-2.51019 1.64474,-2.51019 -1.09063,-2.03787 -1.09064,-2.03787 -2.18909,0.663 c -1.20401,0.36464 -3.09524,1.48979 -4.20275,2.50033 C 287.71223,281.686 281.01101,285 279.51179,285 c -0.30384,0 0.35671,-1.78207 1.46789,-3.96016 1.11117,-2.17809 2.02032,-4.15301 2.02032,-4.38871 0,-0.2357 -1.52978,-0.71554 -3.39952,-1.0663 l -3.39951,-0.63775 -1.19219,-1.43651 -1.19219,-1.4365 -2.4083,1.57798 -2.40829,1.57797 0,3.35305 0,3.35306 -2.69881,1.41405 -2.69881,1.41404 -1.80119,-2.28984 -1.80119,-2.28984 0,-2.96982 0,-2.96983 1.38182,-1.14681 1.38181,-1.1468 -0.23143,-2.94198 -0.23143,-2.94197 -1.06368,-1.28367 -1.06367,-1.28366 1.87419,-2.3125 1.87419,-2.3125 6.73572,0 c 3.70464,0 7.11909,-0.23694 7.58766,-0.52653 l 0.85194,-0.52653 -1.09,-1.31336 -1.09,-1.31337 3.11891,-2.22087 3.11891,-2.22086 -0.58114,-2.31545 -0.58114,-2.31546 0.96826,-0.59842 0.96827,-0.59842 -2.09807,-4.02523 -2.09806,-4.02522 2.16667,-1.5176 2.16668,-1.5176 -2.53953,-1.99759 c -1.39674,-1.09868 -3.04365,-2.93957 -3.65981,-4.09088 l -1.12029,-2.09328 1.7041,-1.24607 1.70411,-1.24608 -1.68745,-2.57537 -1.68744,-2.57537 0.56842,-1.48127 0.56841,-1.48128 -1.20846,-0.77644 c -0.66466,-0.42705 -2.70105,-2.7 -4.52533,-5.051 l -3.31685,-4.27456 -0.55881,-3.44353 -0.55881,-3.44354 4.15764,-0.66483 4.15764,-0.66483 1.85869,-2.36294 1.85868,-2.36293 4.63664,0.63552 4.63664,0.63552 0.53172,0.86034 c 0.29244,0.47318 1.32801,0.86033 2.30125,0.86033 l 1.76954,0 4.67145,-3.09424 4.67144,-3.09423 0,-1.87058 0,-1.87058 1.91033,-1.02238 1.91032,-1.02237 5.51414,2.73719 5.51413,2.73719 -0.17446,1.39626 -0.17446,1.39625 4.25,1.43708 4.25,1.43708 0,3.86961 0,3.86961 1.17144,2.57103 1.17144,2.57103 2.25496,0.56596 2.25497,0.56596 1.71161,1.89131 1.7116,1.8913 -1.00012,1.26876 c -0.55007,0.69782 -1.26845,2.3975 -1.5964,3.77707 l -0.59628,2.50831 0.85746,1.3874 0.85747,1.38741 1.64046,-0.6295 1.64046,-0.6295 1.98232,1.23378 1.98232,1.23379 -0.6692,4.47543 c -0.36807,2.46148 -0.74607,5.16148 -0.84002,6 -0.0939,0.83851 -0.71936,2.83535 -1.38981,4.43741 l -1.219,2.91284 0.91946,0.91946 0.91946,0.91946 -1.47401,2.95473 -1.47402,2.95473 1.21365,1.46236 1.21365,1.46235 -3.37193,-0.63162 c -1.85457,-0.34739 -3.77638,-0.99906 -4.2707,-1.44814 l -0.89875,-0.81652 -2.85125,1.47443 -2.85124,1.47444 0,5.43681 0,5.4368 2.07185,5.53752 2.07185,5.53751 2.42815,0 2.42815,0 0,1.31479 0,1.31479 -3.65523,1.74305 -3.65523,1.74306 -0.82946,-1.30784 c -0.4562,-0.71932 -0.83635,-2.03683 -0.84477,-2.9278 L 325,274.2601 l -4.75,-0.539 -4.75,-0.539 -1.25,1.0314 -1.25,1.03139 -1.25,-1.00938 c -0.6875,-0.55516 -3.18182,-1.32808 -5.54293,-1.7176 l -4.29294,-0.70821 0.62396,2.48605 0.62396,2.48606 -1.04898,0.64831 -1.04898,0.6483 2.14899,4.42327 2.149,4.42327 1.4317,0.5494 1.43171,0.5494 3.36504,-2.07971 3.36505,-2.07971 3.27221,2.44977 c 1.79972,1.34738 4.77011,3.20776 6.60087,4.13419 l 3.32865,1.68441 8.67135,-1.06354 c 4.76924,-0.58494 9.00884,-1.0648 9.42134,-1.06635 0.4125,-0.002 0.75,-0.67782 0.75,-1.50282 l 0,-1.5 1.38871,0 1.38871,0 0.69717,-3.71624 0.69717,-3.71623 1.96342,-2.75738 1.96343,-2.75738 -1.09381,-2.0438 -1.09381,-2.0438 1.54451,-2.20509 1.5445,-2.20509 0,-2.17051 0,-2.1705 1.45435,-0.55809 1.45436,-0.55809 5.79564,2.82708 c 3.18761,1.5549 7.98457,3.88009 10.65992,5.16709 l 4.86426,2.34 0.49273,1.28402 0.49272,1.28401 3.27056,0 3.27057,0 1.26363,1.52258 1.26363,1.52258 1.72085,-0.54618 1.72086,-0.54618 4.6592,1.99717 4.6592,1.99717 0.60528,1.57731 0.60527,1.57731 -2.30956,2.45841 -2.30956,2.45841 -1.74273,-0.55312 -1.74274,-0.55312 -0.98581,1.76155 -0.98582,1.76155 3.00528,3.79447 3.00528,3.79448 5.65632,-0.0686 c 3.11097,-0.0378 6.92614,-0.0277 8.47816,0.0224 l 2.82185,0.0911 -0.69355,3.21538 -0.69355,3.21538 -1.52748,0.88317 -1.52747,0.88318 2.39917,1.84959 2.39918,1.84958 -6.32472,-0.19915 -6.32473,-0.19916 -0.52241,-0.84529 c -0.28733,-0.46491 -1.629,-1.26601 -2.98148,-1.78022 l -2.45906,-0.93493 -2.82262,1.45963 -2.82262,1.45963 -0.58979,1.53698 -0.5898,1.53699 -1.97237,0 -1.97237,0 -0.65615,-1.06168 c -0.36089,-0.58393 -1.84995,-1.53376 -3.30902,-2.11075 l -2.65286,-1.04906 -5.22419,0.13534 -5.22419,0.13534 -1.87488,-1.17089 -1.87488,-1.17088 -2.68494,0.67388 -2.68494,0.67388 -1.1265,2.47241 -1.12651,2.47241 -1.61698,0 c -0.88934,0 -2.65578,-0.7276 -3.92542,-1.6169 l -2.30844,-1.61689 -3.37881,0.5483 -3.3788,0.54831 -3.51939,3.51938 -3.51938,3.51939 1.0248,0.63336 1.0248,0.63336 -0.60806,1.91585 -0.60807,1.91584 2.06739,0 2.06739,0 0,3 0,3 -2.07946,0 -2.07945,0 0.69705,3.25 c 0.38338,1.7875 0.91381,3.61681 1.17873,4.06514 l 0.48168,0.81515 1.68739,-1.52707 1.68739,-1.52706 4.96333,2.43065 c 2.72984,1.33685 4.51334,2.45969 3.96334,2.49519 l -1,0.0645 2.35416,1.96137 2.35417,1.96137 0.85801,-0.53028 0.85801,-0.53028 0.85852,3.28564 0.85852,3.28564 -3.24459,0.30583 -3.24458,0.30583 -1.19855,1.44417 c -0.65921,0.79429 -1.641,1.44417 -2.18176,1.44417 -1.57624,0 -7.04639,4.97517 -8.45467,7.68964 l -1.29165,2.48965 1.02239,1.91036 1.02239,1.91035 1.19302,0 1.19302,0 -4.8041,4.41064 -4.8041,4.41064 -2.50789,0.62944 -2.5079,0.62944 0.57278,-0.92677 0.57278,-0.92678 -1.38696,-1.15107 -1.38695,-1.15107 -2.60399,3.28777 -2.60398,3.28776 2.11971,1.75565 2.11971,1.75564 -1.36776,1.74436 c -0.75227,0.95939 -2.04276,2.29869 -2.86776,2.97622 l -1.5,1.23187 -2.6548,-0.54042 -2.6548,-0.54041 -0.65422,1.05854 -0.65421,1.05855 -5.286,0 -5.28599,0 -1.90499,-2.1126 -1.90499,-2.11259 0,-2.0223 0,-2.02229 -1.61079,-1.02218 -1.61079,-1.02219 -3.6302,2.76889 -3.6302,2.76889 0.45998,2.13819 c 0.60142,2.79567 0.77844,5.4022 0.63715,9.38191 L 292,396.98745 l -2.25,-0.3518 -2.25,-0.3518 0.29785,-2.05334 0.29785,-2.05333 -1.08102,-0.66811 c -0.59457,-0.36746 -2.74873,-0.87496 -4.78703,-1.12777 l -3.70601,-0.45966 -0.96082,-0.96082 L 276.6,388 l -3.57749,0 -3.5775,0 -2.2225,1.5567 -2.22251,1.55671 0,1.37071 0,1.37072 2.44628,1.92424 2.44627,1.92424 -2.90578,2.14834 c -3.47196,2.56693 -3.42981,2.56244 -5.41534,0.57691 z M 262,365.12244 l 0,-1.87755 -1.40189,-1.16346 c -0.77103,-0.63991 -1.66025,-2.19286 -1.97602,-3.45101 l -0.57414,-2.28754 -2.52397,-1.15 -2.52398,-1.15 -2.5,1.13907 -2.5,1.13908 0,3.40523 0,3.40522 1.03518,1.93426 1.03519,1.93426 5.96481,0 5.96482,0 0,-1.87756 z m 36,-135.55435 0,-2.4319 -2.88943,-2.05746 -2.88942,-2.05745 -2.66944,3.49981 -2.66943,3.49981 2.30886,0.92616 c 1.26987,0.50939 3.77136,0.95469 5.55886,0.98955 L 298,232 l 0,-2.43191 z"
     id="path3105"
     style="fill:#af835a" />
</svg>
